G04*
G04 #@! TF.GenerationSoftware,Altium Limited,Altium Designer,23.9.2 (47)*
G04*
G04 Layer_Color=8421504*
%FSLAX44Y44*%
%MOMM*%
G71*
G04*
G04 #@! TF.SameCoordinates,F0651375-337A-4C3E-BB8B-75B9ACF0D411*
G04*
G04*
G04 #@! TF.FilePolarity,Positive*
G04*
G01*
G75*
%ADD18O,1.5000X0.3000*%
%ADD19O,0.3000X1.5000*%
%ADD20R,0.9000X0.8000*%
%ADD21R,2.3000X2.5000*%
%ADD22R,1.5000X1.9000*%
%ADD23R,1.3561X1.8582*%
G04:AMPARAMS|DCode=24|XSize=1.1mm|YSize=0.6mm|CornerRadius=0.051mm|HoleSize=0mm|Usage=FLASHONLY|Rotation=180.000|XOffset=0mm|YOffset=0mm|HoleType=Round|Shape=RoundedRectangle|*
%AMROUNDEDRECTD24*
21,1,1.1000,0.4980,0,0,180.0*
21,1,0.9980,0.6000,0,0,180.0*
1,1,0.1020,-0.4990,0.2490*
1,1,0.1020,0.4990,0.2490*
1,1,0.1020,0.4990,-0.2490*
1,1,0.1020,-0.4990,-0.2490*
%
%ADD24ROUNDEDRECTD24*%
%ADD25R,1.2500X1.8000*%
%ADD26R,3.8000X2.0300*%
%ADD27R,2.0300X1.2700*%
G04:AMPARAMS|DCode=28|XSize=0.9mm|YSize=1.75mm|CornerRadius=0.0495mm|HoleSize=0mm|Usage=FLASHONLY|Rotation=90.000|XOffset=0mm|YOffset=0mm|HoleType=Round|Shape=RoundedRectangle|*
%AMROUNDEDRECTD28*
21,1,0.9000,1.6510,0,0,90.0*
21,1,0.8010,1.7500,0,0,90.0*
1,1,0.0990,0.8255,0.4005*
1,1,0.0990,0.8255,-0.4005*
1,1,0.0990,-0.8255,-0.4005*
1,1,0.0990,-0.8255,0.4005*
%
%ADD28ROUNDEDRECTD28*%
%ADD29R,1.9000X1.5000*%
G04:AMPARAMS|DCode=30|XSize=3.2mm|YSize=1.75mm|CornerRadius=0.0525mm|HoleSize=0mm|Usage=FLASHONLY|Rotation=90.000|XOffset=0mm|YOffset=0mm|HoleType=Round|Shape=RoundedRectangle|*
%AMROUNDEDRECTD30*
21,1,3.2000,1.6450,0,0,90.0*
21,1,3.0950,1.7500,0,0,90.0*
1,1,0.1050,0.8225,1.5475*
1,1,0.1050,0.8225,-1.5475*
1,1,0.1050,-0.8225,-1.5475*
1,1,0.1050,-0.8225,1.5475*
%
%ADD30ROUNDEDRECTD30*%
%ADD31R,1.8582X1.3561*%
%ADD32R,1.8000X1.2500*%
D18*
X457500Y475000D02*
D03*
Y480000D02*
D03*
Y485000D02*
D03*
Y490000D02*
D03*
Y495000D02*
D03*
Y500000D02*
D03*
Y505000D02*
D03*
Y510000D02*
D03*
Y515000D02*
D03*
Y520000D02*
D03*
Y525000D02*
D03*
Y530000D02*
D03*
X542500D02*
D03*
Y525000D02*
D03*
Y520000D02*
D03*
Y515000D02*
D03*
Y510000D02*
D03*
Y505000D02*
D03*
Y500000D02*
D03*
Y495000D02*
D03*
Y490000D02*
D03*
Y485000D02*
D03*
Y480000D02*
D03*
Y475000D02*
D03*
D19*
X472500Y545000D02*
D03*
X477500D02*
D03*
X482500D02*
D03*
X487500D02*
D03*
X492500D02*
D03*
X497500D02*
D03*
X502500D02*
D03*
X507500D02*
D03*
X512500D02*
D03*
X517500D02*
D03*
X522500D02*
D03*
X527500D02*
D03*
Y460000D02*
D03*
X522500D02*
D03*
X517500D02*
D03*
X512500D02*
D03*
X507500D02*
D03*
X502500D02*
D03*
X497500D02*
D03*
X492500D02*
D03*
X487500D02*
D03*
X482500D02*
D03*
X477500D02*
D03*
X472500D02*
D03*
D20*
X630000Y659500D02*
D03*
Y640500D02*
D03*
X650000Y650000D02*
D03*
X770000Y314374D02*
D03*
Y295374D02*
D03*
X790000Y304874D02*
D03*
X300000Y560000D02*
D03*
X280000Y550500D02*
D03*
Y569500D02*
D03*
X300000Y450000D02*
D03*
X280000Y440500D02*
D03*
Y459500D02*
D03*
X360000Y650000D02*
D03*
X340000Y640500D02*
D03*
Y659500D02*
D03*
X460000Y700000D02*
D03*
X440000Y690500D02*
D03*
Y709500D02*
D03*
X660000Y350000D02*
D03*
X640000Y340500D02*
D03*
Y359500D02*
D03*
X570000Y290000D02*
D03*
X550000Y280500D02*
D03*
Y299500D02*
D03*
X450000Y290000D02*
D03*
X430000Y280500D02*
D03*
Y299500D02*
D03*
X360000Y350000D02*
D03*
X340000Y340500D02*
D03*
Y359500D02*
D03*
X560000Y700500D02*
D03*
X540000Y691000D02*
D03*
Y710000D02*
D03*
X710000Y560000D02*
D03*
X690000Y550500D02*
D03*
Y569500D02*
D03*
X710000Y450000D02*
D03*
X690000Y440500D02*
D03*
Y459500D02*
D03*
D21*
X824519Y304874D02*
D03*
Y261874D02*
D03*
D22*
X230000Y182000D02*
D03*
X200000D02*
D03*
X365000Y540000D02*
D03*
X395000D02*
D03*
X365000Y502500D02*
D03*
X395000D02*
D03*
Y580000D02*
D03*
X365000D02*
D03*
X610000Y530000D02*
D03*
X640000D02*
D03*
D23*
X814739Y580000D02*
D03*
X845261D02*
D03*
X814739Y450000D02*
D03*
X845261D02*
D03*
X188467D02*
D03*
X157945D02*
D03*
X188618Y500000D02*
D03*
X158097D02*
D03*
X188618Y550500D02*
D03*
X158097D02*
D03*
X845261Y380000D02*
D03*
X814739D02*
D03*
D24*
X845261Y531500D02*
D03*
Y541000D02*
D03*
Y550500D02*
D03*
X819261D02*
D03*
Y531500D02*
D03*
D25*
X850251Y489789D02*
D03*
X819751D02*
D03*
X490000Y640000D02*
D03*
X814761Y620000D02*
D03*
X845261D02*
D03*
X520500Y640000D02*
D03*
D26*
X780000Y160302D02*
D03*
Y220000D02*
D03*
X292500Y140000D02*
D03*
D27*
X902850Y449200D02*
D03*
Y550800D02*
D03*
X937150Y525400D02*
D03*
X902850Y500000D02*
D03*
X937150Y474600D02*
D03*
D28*
X230000Y237000D02*
D03*
Y214000D02*
D03*
Y260000D02*
D03*
D29*
X330000Y230000D02*
D03*
Y200000D02*
D03*
D30*
X292500Y237000D02*
D03*
D31*
X500000Y120000D02*
D03*
Y150522D02*
D03*
X400000Y120000D02*
D03*
Y150522D02*
D03*
X600000Y120000D02*
D03*
Y150522D02*
D03*
X400000Y850000D02*
D03*
Y819478D02*
D03*
X500000Y850000D02*
D03*
Y819478D02*
D03*
X600000Y850000D02*
D03*
Y819478D02*
D03*
D32*
X740000Y279750D02*
D03*
Y310250D02*
D03*
M02*
