G04*
G04 #@! TF.GenerationSoftware,Altium Limited,Altium Designer,23.9.2 (47)*
G04*
G04 Layer_Color=8388736*
%FSLAX44Y44*%
%MOMM*%
G71*
G04*
G04 #@! TF.SameCoordinates,F0651375-337A-4C3E-BB8B-75B9ACF0D411*
G04*
G04*
G04 #@! TF.FilePolarity,Negative*
G04*
G01*
G75*
%ADD20R,0.9000X0.8000*%
%ADD21R,2.3000X2.5000*%
%ADD23R,1.3561X1.8582*%
G04:AMPARAMS|DCode=24|XSize=1.1mm|YSize=0.6mm|CornerRadius=0.051mm|HoleSize=0mm|Usage=FLASHONLY|Rotation=180.000|XOffset=0mm|YOffset=0mm|HoleType=Round|Shape=RoundedRectangle|*
%AMROUNDEDRECTD24*
21,1,1.1000,0.4980,0,0,180.0*
21,1,0.9980,0.6000,0,0,180.0*
1,1,0.1020,-0.4990,0.2490*
1,1,0.1020,0.4990,0.2490*
1,1,0.1020,0.4990,-0.2490*
1,1,0.1020,-0.4990,-0.2490*
%
%ADD24ROUNDEDRECTD24*%
%ADD31R,1.8582X1.3561*%
%ADD33O,1.7032X0.5032*%
%ADD34O,0.5032X1.7032*%
%ADD35R,1.7032X2.1032*%
G04:AMPARAMS|DCode=36|XSize=1.3032mm|YSize=0.8032mm|CornerRadius=0.1526mm|HoleSize=0mm|Usage=FLASHONLY|Rotation=180.000|XOffset=0mm|YOffset=0mm|HoleType=Round|Shape=RoundedRectangle|*
%AMROUNDEDRECTD36*
21,1,1.3032,0.4980,0,0,180.0*
21,1,0.9980,0.8032,0,0,180.0*
1,1,0.3052,-0.4990,0.2490*
1,1,0.3052,0.4990,0.2490*
1,1,0.3052,0.4990,-0.2490*
1,1,0.3052,-0.4990,-0.2490*
%
%ADD36ROUNDEDRECTD36*%
%ADD37R,1.4532X2.0032*%
%ADD38R,4.0032X2.2332*%
%ADD39R,2.1300X1.3700*%
G04:AMPARAMS|DCode=40|XSize=1.1032mm|YSize=1.9532mm|CornerRadius=0.1511mm|HoleSize=0mm|Usage=FLASHONLY|Rotation=90.000|XOffset=0mm|YOffset=0mm|HoleType=Round|Shape=RoundedRectangle|*
%AMROUNDEDRECTD40*
21,1,1.1032,1.6510,0,0,90.0*
21,1,0.8010,1.9532,0,0,90.0*
1,1,0.3022,0.8255,0.4005*
1,1,0.3022,0.8255,-0.4005*
1,1,0.3022,-0.8255,-0.4005*
1,1,0.3022,-0.8255,0.4005*
%
%ADD40ROUNDEDRECTD40*%
%ADD41R,2.1032X1.7032*%
G04:AMPARAMS|DCode=42|XSize=3.4032mm|YSize=1.9532mm|CornerRadius=0.1541mm|HoleSize=0mm|Usage=FLASHONLY|Rotation=90.000|XOffset=0mm|YOffset=0mm|HoleType=Round|Shape=RoundedRectangle|*
%AMROUNDEDRECTD42*
21,1,3.4032,1.6450,0,0,90.0*
21,1,3.0950,1.9532,0,0,90.0*
1,1,0.3082,0.8225,1.5475*
1,1,0.3082,0.8225,-1.5475*
1,1,0.3082,-0.8225,-1.5475*
1,1,0.3082,-0.8225,1.5475*
%
%ADD42ROUNDEDRECTD42*%
%ADD43R,2.0032X1.4532*%
%ADD44C,3.3732*%
%ADD45C,2.6032*%
%ADD46C,1.6032*%
%ADD47R,1.6032X1.6032*%
%ADD48C,3.2032*%
%ADD49C,1.7032*%
%ADD50R,1.7032X1.7032*%
%ADD51C,0.8032*%
D20*
X630000Y659500D02*
D03*
Y640500D02*
D03*
X650000Y650000D02*
D03*
X770000Y314374D02*
D03*
Y295374D02*
D03*
X790000Y304874D02*
D03*
X300000Y560000D02*
D03*
X280000Y550500D02*
D03*
Y569500D02*
D03*
X300000Y450000D02*
D03*
X280000Y440500D02*
D03*
Y459500D02*
D03*
X360000Y650000D02*
D03*
X340000Y640500D02*
D03*
Y659500D02*
D03*
X460000Y700000D02*
D03*
X440000Y690500D02*
D03*
Y709500D02*
D03*
X660000Y350000D02*
D03*
X640000Y340500D02*
D03*
Y359500D02*
D03*
X570000Y290000D02*
D03*
X550000Y280500D02*
D03*
Y299500D02*
D03*
X450000Y290000D02*
D03*
X430000Y280500D02*
D03*
Y299500D02*
D03*
X360000Y350000D02*
D03*
X340000Y340500D02*
D03*
Y359500D02*
D03*
X560000Y700500D02*
D03*
X540000Y691000D02*
D03*
Y710000D02*
D03*
X710000Y560000D02*
D03*
X690000Y550500D02*
D03*
Y569500D02*
D03*
X710000Y450000D02*
D03*
X690000Y440500D02*
D03*
Y459500D02*
D03*
D21*
X824519Y304874D02*
D03*
Y261874D02*
D03*
D23*
X814739Y580000D02*
D03*
X845261D02*
D03*
X814739Y450000D02*
D03*
X845261D02*
D03*
X188467D02*
D03*
X157945D02*
D03*
X188618Y500000D02*
D03*
X158097D02*
D03*
X188618Y550500D02*
D03*
X158097D02*
D03*
X845261Y380000D02*
D03*
X814739D02*
D03*
D24*
X845261Y531500D02*
D03*
Y541000D02*
D03*
Y550500D02*
D03*
D31*
X500000Y120000D02*
D03*
Y150522D02*
D03*
X400000Y120000D02*
D03*
Y150522D02*
D03*
X600000Y120000D02*
D03*
Y150522D02*
D03*
X400000Y850000D02*
D03*
Y819478D02*
D03*
X500000Y850000D02*
D03*
Y819478D02*
D03*
X600000Y850000D02*
D03*
Y819478D02*
D03*
D33*
X457500Y475000D02*
D03*
Y480000D02*
D03*
Y485000D02*
D03*
Y490000D02*
D03*
Y495000D02*
D03*
Y500000D02*
D03*
Y505000D02*
D03*
Y510000D02*
D03*
Y515000D02*
D03*
Y520000D02*
D03*
Y525000D02*
D03*
Y530000D02*
D03*
X542500D02*
D03*
Y525000D02*
D03*
Y520000D02*
D03*
Y515000D02*
D03*
Y510000D02*
D03*
Y505000D02*
D03*
Y500000D02*
D03*
Y495000D02*
D03*
Y490000D02*
D03*
Y485000D02*
D03*
Y480000D02*
D03*
Y475000D02*
D03*
D34*
X472500Y545000D02*
D03*
X477500D02*
D03*
X482500D02*
D03*
X487500D02*
D03*
X492500D02*
D03*
X497500D02*
D03*
X502500D02*
D03*
X507500D02*
D03*
X512500D02*
D03*
X517500D02*
D03*
X522500D02*
D03*
X527500D02*
D03*
Y460000D02*
D03*
X522500D02*
D03*
X517500D02*
D03*
X512500D02*
D03*
X507500D02*
D03*
X502500D02*
D03*
X497500D02*
D03*
X492500D02*
D03*
X487500D02*
D03*
X482500D02*
D03*
X477500D02*
D03*
X472500D02*
D03*
D35*
X230000Y182000D02*
D03*
X200000D02*
D03*
X365000Y540000D02*
D03*
X395000D02*
D03*
X365000Y502500D02*
D03*
X395000D02*
D03*
Y580000D02*
D03*
X365000D02*
D03*
X610000Y530000D02*
D03*
X640000D02*
D03*
D36*
X819261Y550500D02*
D03*
Y531500D02*
D03*
D37*
X850251Y489789D02*
D03*
X819751D02*
D03*
X490000Y640000D02*
D03*
X814761Y620000D02*
D03*
X845261D02*
D03*
X520500Y640000D02*
D03*
D38*
X780000Y160302D02*
D03*
Y220000D02*
D03*
X292500Y140000D02*
D03*
D39*
X902850Y449200D02*
D03*
Y550800D02*
D03*
X937150Y525400D02*
D03*
X902850Y500000D02*
D03*
X937150Y474600D02*
D03*
D40*
X230000Y237000D02*
D03*
Y214000D02*
D03*
Y260000D02*
D03*
D41*
X330000Y230000D02*
D03*
Y200000D02*
D03*
D42*
X292500Y237000D02*
D03*
D43*
X740000Y279750D02*
D03*
Y310250D02*
D03*
D44*
X882750Y692850D02*
D03*
Y807150D02*
D03*
X117250D02*
D03*
Y692850D02*
D03*
D45*
X852250Y671250D02*
D03*
Y828750D02*
D03*
X147750D02*
D03*
Y671250D02*
D03*
D46*
X971650Y705550D02*
D03*
X946250Y718250D02*
D03*
X971650Y730950D02*
D03*
X946250Y743650D02*
D03*
X971650Y756350D02*
D03*
X946250Y769050D02*
D03*
X971650Y781750D02*
D03*
X28350Y794450D02*
D03*
X53750Y781750D02*
D03*
X28350Y769050D02*
D03*
X53750Y756350D02*
D03*
X28350Y743650D02*
D03*
X53750Y730950D02*
D03*
X28350Y718250D02*
D03*
D47*
X946250Y794450D02*
D03*
X53750Y705550D02*
D03*
D48*
X950000Y50000D02*
D03*
Y950000D02*
D03*
X50000Y50000D02*
D03*
Y950000D02*
D03*
D49*
X250000Y683000D02*
D03*
Y784600D02*
D03*
Y708400D02*
D03*
Y733800D02*
D03*
Y759200D02*
D03*
X750000D02*
D03*
Y733800D02*
D03*
Y708400D02*
D03*
Y784600D02*
D03*
Y683000D02*
D03*
D50*
X250000Y810000D02*
D03*
X750000D02*
D03*
D51*
X493387Y590000D02*
D03*
X492790Y513245D02*
D03*
X326601Y640000D02*
D03*
X486193Y498918D02*
D03*
X487387Y610000D02*
D03*
X435500Y510000D02*
D03*
Y525134D02*
D03*
X441500Y490000D02*
D03*
X859355Y550500D02*
D03*
X311707Y449761D02*
D03*
X43933Y743650D02*
D03*
X473181Y622000D02*
D03*
X460000Y544500D02*
D03*
Y598806D02*
D03*
X476817Y290000D02*
D03*
X460000Y673564D02*
D03*
X423703Y708400D02*
D03*
X424000Y591194D02*
D03*
X418000Y691000D02*
D03*
X517465Y701193D02*
D03*
X614712Y640500D02*
D03*
X676000Y440152D02*
D03*
X623218Y340000D02*
D03*
X690941Y350365D02*
D03*
X517465Y477500D02*
D03*
X483422Y443000D02*
D03*
X798601Y573399D02*
D03*
Y380000D02*
D03*
X780000Y420000D02*
D03*
X700000Y539000D02*
D03*
X710000Y581000D02*
D03*
X786000Y600000D02*
D03*
X710000Y759050D02*
D03*
X512487Y440152D02*
D03*
X921053Y500000D02*
D03*
X538806Y280500D02*
D03*
X780000Y756350D02*
D03*
X840000Y135000D02*
D03*
X669000Y530000D02*
D03*
X529256Y691000D02*
D03*
X413470Y280500D02*
D03*
X207296Y260000D02*
D03*
X180000Y182000D02*
D03*
X330000Y180000D02*
D03*
X328000Y340000D02*
D03*
X347500Y502500D02*
D03*
X346306Y540000D02*
D03*
X347500Y580000D02*
D03*
X266343Y551000D02*
D03*
X267351Y440116D02*
D03*
X41474Y870000D02*
D03*
X786000D02*
D03*
X71792Y743650D02*
D03*
X89426Y714390D02*
D03*
X955569Y525431D02*
D03*
X770000Y283000D02*
D03*
X740000Y261874D02*
D03*
X780000Y140000D02*
D03*
X729281Y410000D02*
D03*
X720000Y430000D02*
D03*
X846000Y644860D02*
D03*
X667483Y643899D02*
D03*
X845145Y599403D02*
D03*
X786000Y550800D02*
D03*
X868109Y620000D02*
D03*
Y531500D02*
D03*
X685193Y474857D02*
D03*
X660000Y350000D02*
D03*
X670000Y397843D02*
D03*
X880000Y304874D02*
D03*
X500000Y164913D02*
D03*
X592593Y170000D02*
D03*
X600000Y292500D02*
D03*
X430000Y329147D02*
D03*
X430500Y496000D02*
D03*
X614712Y671250D02*
D03*
X584000Y849008D02*
D03*
X482346Y850000D02*
D03*
X383581D02*
D03*
X308309Y626750D02*
D03*
X220000Y626843D02*
D03*
Y550500D02*
D03*
X270000Y610000D02*
D03*
X360000Y650000D02*
D03*
X300000Y505000D02*
D03*
X270750Y502500D02*
D03*
X239500Y570000D02*
D03*
X239619Y384343D02*
D03*
X297750Y406601D02*
D03*
X398884Y170000D02*
D03*
X386807Y350000D02*
D03*
X485744Y384343D02*
D03*
X494000Y370000D02*
D03*
X506000Y430000D02*
D03*
X270000Y657957D02*
D03*
X512807Y359500D02*
D03*
X494000Y440000D02*
D03*
X500000Y312546D02*
D03*
Y421194D02*
D03*
X506000Y321691D02*
D03*
X728928Y733469D02*
D03*
X540000Y410000D02*
D03*
Y458806D02*
D03*
X609718Y460000D02*
D03*
X598307Y475000D02*
D03*
X598593Y420000D02*
D03*
X609625Y494913D02*
D03*
X598593Y570000D02*
D03*
X599500Y500000D02*
D03*
X588806Y504000D02*
D03*
X577500Y510000D02*
D03*
X590000Y659015D02*
D03*
X577500Y720673D02*
D03*
X570000Y520411D02*
D03*
X560000Y530000D02*
D03*
X90000Y757667D02*
D03*
Y890000D02*
D03*
X560000D02*
D03*
X71792Y880000D02*
D03*
X570000D02*
D03*
M02*
