G04*
G04 #@! TF.GenerationSoftware,Altium Limited,Altium Designer,23.9.2 (47)*
G04*
G04 Layer_Color=32896*
%FSLAX44Y44*%
%MOMM*%
G71*
G04*
G04 #@! TF.SameCoordinates,F0651375-337A-4C3E-BB8B-75B9ACF0D411*
G04*
G04*
G04 #@! TF.FilePolarity,Positive*
G04*
G01*
G75*
%ADD12C,0.2000*%
%ADD15C,0.2540*%
%ADD16C,0.1524*%
%ADD86C,2.5400*%
%ADD87C,0.4000*%
%ADD88C,0.0508*%
%ADD89C,0.1778*%
D12*
X654709Y601625D02*
X659906Y604625D01*
X655808Y605723D02*
X658808Y600527D01*
X670994Y620420D02*
X678355Y624670D01*
X679129Y606330D02*
X686490Y610580D01*
X508135Y705750D02*
Y714250D01*
X491865Y705750D02*
Y714250D01*
X497000Y685250D02*
X503000D01*
X500000Y682250D02*
Y688250D01*
X604920Y689252D02*
X609170Y696613D01*
X590830Y697387D02*
X595080Y704748D01*
X585027Y677066D02*
X590223Y674066D01*
X586125Y672968D02*
X589125Y678164D01*
X393496Y690502D02*
X397995Y685140D01*
X382005Y680860D02*
X386504Y675498D01*
X320719Y628245D02*
X326781Y624745D01*
X313219Y615255D02*
X319281Y611755D01*
X280750Y510000D02*
X287750D01*
X280750Y495000D02*
X287750D01*
X303219Y391245D02*
X309281Y394745D01*
X310719Y378255D02*
X316781Y381755D01*
X394745Y303219D02*
X398245Y309281D01*
X381755Y310719D02*
X385255Y316781D01*
X507500Y280000D02*
Y287000D01*
X492500Y280000D02*
Y287000D01*
X594630Y319281D02*
X598130Y313219D01*
X607620Y326781D02*
X611120Y320719D01*
X673219Y381755D02*
X679281Y378255D01*
X680719Y394745D02*
X686781Y391245D01*
X692750Y515635D02*
X701250D01*
X692750Y499365D02*
X701250D01*
X721750Y504500D02*
Y510500D01*
X718750Y507500D02*
X724750D01*
X887000Y606500D02*
X919000D01*
Y632250D02*
Y633500D01*
Y606500D02*
Y607750D01*
X887000Y633500D02*
X919000D01*
X887000Y632250D02*
Y633500D01*
Y606500D02*
Y607750D01*
D15*
X440000Y440000D02*
X560000D01*
X440000Y560000D02*
X560000D01*
Y440000D02*
Y560000D01*
X440000Y440000D02*
Y560000D01*
X72458Y620802D02*
X65794Y627467D01*
Y640796D01*
X72458Y647460D01*
X79123D01*
X85787Y640796D01*
Y627467D01*
X92452Y620802D01*
X99116D01*
X105781Y627467D01*
Y640796D01*
X99116Y647460D01*
X105781Y587479D02*
Y600808D01*
X99116Y607473D01*
X85787D01*
X79123Y600808D01*
Y587479D01*
X85787Y580815D01*
X92452D01*
Y607473D01*
X79123Y540828D02*
Y560821D01*
X85787Y567486D01*
X99116D01*
X105781Y560821D01*
Y540828D01*
X72458Y520834D02*
X79123D01*
Y527499D01*
Y514170D01*
Y520834D01*
X99116D01*
X105781Y514170D01*
Y494176D02*
Y480847D01*
Y487512D01*
X79123D01*
Y494176D01*
X105781Y454189D02*
Y440860D01*
X99116Y434196D01*
X85787D01*
X79123Y440860D01*
Y454189D01*
X85787Y460854D01*
X99116D01*
X105781Y454189D01*
Y420867D02*
X79123D01*
Y400873D01*
X85787Y394209D01*
X105781D01*
Y380880D02*
Y360886D01*
X99116Y354221D01*
X92452Y360886D01*
Y374215D01*
X85787Y380880D01*
X79123Y374215D01*
Y354221D01*
X72458Y300905D02*
X65794Y294241D01*
Y280912D01*
X72458Y274247D01*
X99116D01*
X105781Y280912D01*
Y294241D01*
X99116Y300905D01*
X72458D01*
Y260918D02*
X65794Y254254D01*
Y240925D01*
X72458Y234260D01*
X99116D01*
X105781Y240925D01*
Y254254D01*
X99116Y260918D01*
X72458D01*
X105781Y220931D02*
Y207602D01*
Y214267D01*
X65794D01*
X72458Y220931D01*
X57460Y627460D02*
X17473D01*
Y607467D01*
X24137Y600802D01*
X37466D01*
X44131Y607467D01*
Y627460D01*
X17473Y560815D02*
Y587473D01*
X57460D01*
Y560815D01*
X37466Y587473D02*
Y574144D01*
X17473Y547486D02*
Y534157D01*
Y540821D01*
X57460D01*
Y547486D01*
Y534157D01*
X17473Y474176D02*
X24137D01*
X37466Y460847D01*
X24137Y447518D01*
X17473D01*
X37466Y460847D02*
X57460D01*
X17473Y434189D02*
X50795D01*
X57460Y427525D01*
Y414196D01*
X50795Y407531D01*
X17473D01*
Y354215D02*
X57460D01*
Y327557D01*
X17473Y314228D02*
Y300899D01*
Y307563D01*
X57460D01*
Y314228D01*
Y300899D01*
Y280905D02*
X17473D01*
X57460Y254247D01*
X17473D01*
X913270Y655868D02*
X915809Y658407D01*
X920887D01*
X923426Y655868D01*
Y653329D01*
X920887Y650790D01*
X915809D01*
X913270Y648251D01*
Y645711D01*
X915809Y643172D01*
X920887D01*
X923426Y645711D01*
X908191Y658407D02*
Y643172D01*
X903113Y648251D01*
X898035Y643172D01*
Y658407D01*
X892956Y643172D02*
X887878D01*
X890417D01*
Y658407D01*
X892956Y655868D01*
D16*
X883802Y233975D02*
Y225088D01*
X877878D01*
X868990Y232494D02*
X870472Y233975D01*
X873434D01*
X874915Y232494D01*
Y231013D01*
X873434Y229532D01*
X870472D01*
X868990Y228051D01*
Y226569D01*
X870472Y225088D01*
X873434D01*
X874915Y226569D01*
X866028Y225088D02*
X863066D01*
X864547D01*
Y233975D01*
X866028Y232494D01*
X455050Y594401D02*
Y586995D01*
X453569Y585514D01*
X450607D01*
X449126Y586995D01*
Y594401D01*
X440238Y585514D02*
X446163D01*
X440238Y591439D01*
Y592920D01*
X441720Y594401D01*
X444682D01*
X446163Y592920D01*
X448436Y326325D02*
X443992Y318628D01*
X438861Y321590D01*
X435608Y333731D02*
X440739Y330768D01*
X436296Y323072D01*
X431165Y326034D01*
X438517Y326920D02*
X435952Y328401D01*
X433043Y335212D02*
X428599Y327515D01*
X424751Y329737D01*
X424209Y331760D01*
X427171Y336891D01*
X429194Y337434D01*
X433043Y335212D01*
X420162Y330676D02*
X415031Y333638D01*
X417650Y344099D02*
X416909Y342816D01*
X412862Y341732D01*
X411778Y345779D01*
X412519Y347061D01*
X412862Y341732D02*
X410641Y337884D01*
X401661Y343068D02*
X406105Y350764D01*
X407731Y344694D01*
X402600Y347657D01*
X542426Y326939D02*
Y318052D01*
X536502D01*
X527615Y326939D02*
X533539D01*
Y318052D01*
X527615D01*
X533539Y322496D02*
X530577D01*
X524652Y326939D02*
Y318052D01*
X520209D01*
X518727Y319533D01*
Y325458D01*
X520209Y326939D01*
X524652D01*
X515765Y316571D02*
X509840D01*
X506878Y326939D02*
Y325458D01*
X503915Y322496D01*
X500953Y325458D01*
Y326939D01*
X503915Y322496D02*
Y318052D01*
X497991Y325458D02*
X496510Y326939D01*
X493547D01*
X492066Y325458D01*
Y323977D01*
X493547Y322496D01*
X495028D01*
X493547D01*
X492066Y321015D01*
Y319533D01*
X493547Y318052D01*
X496510D01*
X497991Y319533D01*
X636152Y359705D02*
Y350818D01*
X630228D01*
X621340Y359705D02*
X627265D01*
Y350818D01*
X621340D01*
X627265Y355262D02*
X624303D01*
X618378Y359705D02*
Y350818D01*
X613935D01*
X612453Y352299D01*
Y358224D01*
X613935Y359705D01*
X618378D01*
X609491Y349337D02*
X603566D01*
X600604Y359705D02*
Y358224D01*
X597641Y355262D01*
X594679Y358224D01*
Y359705D01*
X597641Y355262D02*
Y350818D01*
X585792D02*
X591717D01*
X585792Y356743D01*
Y358224D01*
X587273Y359705D01*
X590235D01*
X591717Y358224D01*
X706256Y422189D02*
Y413302D01*
X700332D01*
X691444Y422189D02*
X697369D01*
Y413302D01*
X691444D01*
X697369Y417746D02*
X694407D01*
X688482Y422189D02*
Y413302D01*
X684039D01*
X682557Y414783D01*
Y420708D01*
X684039Y422189D01*
X688482D01*
X679595Y411821D02*
X673670D01*
X670708Y422189D02*
Y420708D01*
X667746Y417746D01*
X664783Y420708D01*
Y422189D01*
X667746Y417746D02*
Y413302D01*
X661821D02*
X658858D01*
X660340D01*
Y422189D01*
X661821Y420708D01*
X421268Y721909D02*
Y713022D01*
X415344D01*
X406456Y721909D02*
X412381D01*
Y713022D01*
X406456D01*
X412381Y717466D02*
X409419D01*
X403494Y721909D02*
Y713022D01*
X399051D01*
X397569Y714503D01*
Y720428D01*
X399051Y721909D01*
X403494D01*
X394607Y711541D02*
X388682D01*
X385720Y713022D02*
Y721909D01*
X381276D01*
X379795Y720428D01*
Y717466D01*
X381276Y715985D01*
X385720D01*
X382757D02*
X379795Y713022D01*
X372389D02*
Y721909D01*
X376833Y717466D01*
X370908D01*
X349132Y655615D02*
Y646728D01*
X343208D01*
X334320Y655615D02*
X340245D01*
Y646728D01*
X334320D01*
X340245Y651172D02*
X337283D01*
X331358Y655615D02*
Y646728D01*
X326915D01*
X325433Y648209D01*
Y654134D01*
X326915Y655615D01*
X331358D01*
X322471Y645247D02*
X316546D01*
X313584Y646728D02*
Y655615D01*
X309140D01*
X307659Y654134D01*
Y651172D01*
X309140Y649691D01*
X313584D01*
X310621D02*
X307659Y646728D01*
X304697Y654134D02*
X303216Y655615D01*
X300253D01*
X298772Y654134D01*
Y652653D01*
X300253Y651172D01*
X301734D01*
X300253D01*
X298772Y649691D01*
Y648209D01*
X300253Y646728D01*
X303216D01*
X304697Y648209D01*
X315350Y528869D02*
Y519982D01*
X309426D01*
X300539Y528869D02*
X306463D01*
Y519982D01*
X300539D01*
X306463Y524426D02*
X303501D01*
X297576Y528869D02*
Y519982D01*
X293133D01*
X291651Y521463D01*
Y527388D01*
X293133Y528869D01*
X297576D01*
X288689Y518501D02*
X282764D01*
X279802Y519982D02*
Y528869D01*
X275358D01*
X273877Y527388D01*
Y524426D01*
X275358Y522945D01*
X279802D01*
X276840D02*
X273877Y519982D01*
X264990D02*
X270915D01*
X264990Y525907D01*
Y527388D01*
X266471Y528869D01*
X269433D01*
X270915Y527388D01*
X336178Y424983D02*
Y416096D01*
X330254D01*
X321367Y424983D02*
X327291D01*
Y416096D01*
X321367D01*
X327291Y420540D02*
X324329D01*
X318404Y424983D02*
Y416096D01*
X313961D01*
X312479Y417577D01*
Y423502D01*
X313961Y424983D01*
X318404D01*
X309517Y414615D02*
X303592D01*
X300630Y416096D02*
Y424983D01*
X296186D01*
X294705Y423502D01*
Y420540D01*
X296186Y419059D01*
X300630D01*
X297668D02*
X294705Y416096D01*
X291743D02*
X288780D01*
X290261D01*
Y424983D01*
X291743Y423502D01*
X728862Y534711D02*
Y525824D01*
X722938D01*
X714051Y534711D02*
X719975D01*
Y525824D01*
X714051D01*
X719975Y530268D02*
X717013D01*
X711088Y534711D02*
Y525824D01*
X706645D01*
X705163Y527305D01*
Y533230D01*
X706645Y534711D01*
X711088D01*
X702201Y524343D02*
X696276D01*
X687389Y533230D02*
X688870Y534711D01*
X691833D01*
X693314Y533230D01*
Y527305D01*
X691833Y525824D01*
X688870D01*
X687389Y527305D01*
Y530268D01*
X690351D01*
X679983Y525824D02*
Y534711D01*
X684427Y530268D01*
X678502D01*
X715180Y648184D02*
Y639297D01*
X709255D01*
X700368Y648184D02*
X706293D01*
Y639297D01*
X700368D01*
X706293Y643741D02*
X703331D01*
X697406Y648184D02*
Y639297D01*
X692962D01*
X691481Y640778D01*
Y646703D01*
X692962Y648184D01*
X697406D01*
X688519Y637816D02*
X682594D01*
X673707Y646703D02*
X675188Y648184D01*
X678150D01*
X679632Y646703D01*
Y640778D01*
X678150Y639297D01*
X675188D01*
X673707Y640778D01*
Y643741D01*
X676669D01*
X670744Y646703D02*
X669263Y648184D01*
X666301D01*
X664820Y646703D01*
Y645222D01*
X666301Y643741D01*
X667782D01*
X666301D01*
X664820Y642259D01*
Y640778D01*
X666301Y639297D01*
X669263D01*
X670744Y640778D01*
X628786Y736387D02*
Y727500D01*
X622862D01*
X613974Y736387D02*
X619899D01*
Y727500D01*
X613974D01*
X619899Y731944D02*
X616937D01*
X611012Y736387D02*
Y727500D01*
X606569D01*
X605087Y728981D01*
Y734906D01*
X606569Y736387D01*
X611012D01*
X602125Y726019D02*
X596200D01*
X587313Y734906D02*
X588794Y736387D01*
X591757D01*
X593238Y734906D01*
Y728981D01*
X591757Y727500D01*
X588794D01*
X587313Y728981D01*
Y731944D01*
X590275D01*
X578426Y727500D02*
X584351D01*
X578426Y733425D01*
Y734906D01*
X579907Y736387D01*
X582869D01*
X584351Y734906D01*
X538870Y747055D02*
Y738168D01*
X532946D01*
X524058Y747055D02*
X529983D01*
Y738168D01*
X524058D01*
X529983Y742612D02*
X527021D01*
X521096Y747055D02*
Y738168D01*
X516653D01*
X515171Y739649D01*
Y745574D01*
X516653Y747055D01*
X521096D01*
X512209Y736687D02*
X506284D01*
X497397Y745574D02*
X498878Y747055D01*
X501841D01*
X503322Y745574D01*
Y739649D01*
X501841Y738168D01*
X498878D01*
X497397Y739649D01*
Y742612D01*
X500359D01*
X494435Y738168D02*
X491472D01*
X492953D01*
Y747055D01*
X494435Y745574D01*
D86*
X767466Y500000D02*
G03*
X767466Y500000I-267466J0D01*
G01*
D87*
X400003Y659411D02*
X411494Y669053D01*
X337468Y601255D02*
X344968Y614245D01*
X308750Y495000D02*
Y510000D01*
X327468Y405245D02*
X334968Y392255D01*
X395755Y334968D02*
X408745Y327468D01*
X492500Y308000D02*
X507500D01*
X608630Y295032D02*
X621620Y302532D01*
X697467Y367755D02*
X704968Y380745D01*
D88*
X69868Y150650D02*
X70376D01*
X20084Y106962D02*
X30244D01*
X20084Y106454D02*
X30244D01*
X20084Y105946D02*
X29736D01*
X20084Y105438D02*
X29736D01*
X20084Y104930D02*
X29736D01*
X20084Y104422D02*
X29228D01*
X20084Y103914D02*
X29228D01*
X20084Y103406D02*
X28720D01*
X31768Y102898D02*
X33292D01*
X20084D02*
X28720D01*
X31768Y102390D02*
X32784D01*
X20084D02*
X28720D01*
X20084Y101882D02*
X28720D01*
X20084Y101374D02*
X28212D01*
X20084Y100866D02*
X28212D01*
X20084Y100358D02*
X27196D01*
X20084Y99850D02*
X25672D01*
X20084Y99342D02*
X24656D01*
X21100Y98834D02*
X23640D01*
X20084D02*
X20592D01*
X21100Y98326D02*
X22116D01*
X25164Y97818D02*
X34308D01*
X23640Y97310D02*
X32276D01*
X23132Y96802D02*
X31768D01*
X21608Y96294D02*
X29736D01*
X20084Y95786D02*
X28212D01*
X19068Y95278D02*
X27196D01*
X17544Y94770D02*
X25672D01*
X20084Y127282D02*
X27704D01*
X19576Y126774D02*
X27704D01*
X19576Y126266D02*
X27704D01*
X19576Y125758D02*
X27704D01*
X19576Y125250D02*
X27704D01*
X19576Y124742D02*
X27704D01*
X19576Y124234D02*
X27704D01*
X19576Y123726D02*
X27196D01*
X19576Y123218D02*
X27196D01*
X19576Y122710D02*
X27196D01*
X20084Y111026D02*
X31260D01*
X20084Y110518D02*
X31260D01*
X20084Y110010D02*
X31260D01*
X20084Y109502D02*
X30752D01*
X20084Y108994D02*
X30752D01*
X20084Y108486D02*
X30244D01*
X20084Y107978D02*
X30244D01*
Y146078D02*
X33292D01*
X30244Y145570D02*
X33292D01*
X30244Y145062D02*
X33292D01*
X30244Y144554D02*
X33292D01*
X30244Y144046D02*
X33292D01*
X30244Y143538D02*
X33292D01*
X30244Y143030D02*
X33292D01*
X30244Y142522D02*
X33292D01*
X30244Y142014D02*
X33292D01*
X30244Y141506D02*
X33292D01*
X30244Y140998D02*
X33292D01*
X30244Y140490D02*
X33292D01*
X30244Y139982D02*
X33292D01*
X30244Y139474D02*
X33292D01*
X30244Y138966D02*
X33292D01*
X30244Y138458D02*
X33292D01*
X30244Y137950D02*
X33292D01*
X30244Y137442D02*
X33292D01*
X30244Y136934D02*
X33292D01*
X29736Y136426D02*
X33292D01*
X27704Y135918D02*
X33292D01*
X26180Y135410D02*
X33292D01*
X24656Y134902D02*
X33292D01*
X23640Y134394D02*
X32276D01*
X22116Y133886D02*
X30752D01*
X20592Y133378D02*
X28720D01*
X19576Y132870D02*
X28212D01*
X18052Y132362D02*
X26180D01*
X16528Y131854D02*
X24656D01*
X15004Y131346D02*
X23132D01*
X25672Y129822D02*
X26688D01*
X25164Y129314D02*
X26688D01*
X23640Y128806D02*
X27704D01*
X22116Y128298D02*
X27704D01*
X41420Y86642D02*
X45484D01*
X41928Y86134D02*
X45484D01*
X42436Y85626D02*
X46500D01*
X42436Y85118D02*
X46500D01*
X41928Y84610D02*
X47008D01*
X41420Y84102D02*
X46500D01*
X41420Y83594D02*
X45992D01*
X41420Y83086D02*
X45484D01*
X41928Y82578D02*
X45992D01*
X42436Y82070D02*
X46500D01*
X42436Y81562D02*
X47008D01*
X43452Y81054D02*
X47516D01*
X43960Y80546D02*
X48024D01*
X43960Y80038D02*
X48532D01*
X44976Y79530D02*
X49040D01*
X45484Y79022D02*
X50056D01*
X45992Y78514D02*
X50564D01*
X46500Y78006D02*
X51580D01*
X47008Y77498D02*
X52596D01*
X48024Y76990D02*
X53612D01*
X48532Y76482D02*
X54120D01*
X51072Y74958D02*
X54628D01*
X50564Y74450D02*
X54120D01*
X50564Y73942D02*
X54628D01*
X40912Y142014D02*
X43960D01*
X35324D02*
X40404D01*
X45484Y141506D02*
X49040D01*
X40912D02*
X43960D01*
X35324D02*
X39896D01*
X45484Y140998D02*
X54120D01*
X38880D02*
X43960D01*
X35324D02*
X37356D01*
X45484Y140490D02*
X53612D01*
X36848D02*
X43960D01*
X35324D02*
X36340D01*
X46500Y139982D02*
X52088D01*
X36848D02*
X43960D01*
X46500Y139474D02*
X51580D01*
X36848D02*
X43960D01*
X40912Y138966D02*
X43960D01*
X36848D02*
X39896D01*
X40912Y138458D02*
X44468D01*
X36848D02*
X37864D01*
X40912Y137950D02*
X44468D01*
X36848D02*
X37356D01*
X40404Y137442D02*
X42944D01*
X47516Y136934D02*
X48532D01*
X40404D02*
X41420D01*
X47008Y136426D02*
X48532D01*
X44468Y135918D02*
X50056D01*
X37356Y133886D02*
X38372D01*
X35324Y133378D02*
X38372D01*
X40404Y131346D02*
X49040D01*
X40404Y130838D02*
X49040D01*
X40404Y130330D02*
X49040D01*
X40912Y129822D02*
X49040D01*
X50056Y129314D02*
X50564D01*
X40912D02*
X49040D01*
X51072Y128806D02*
X53104D01*
X41420D02*
X49040D01*
X41420Y128298D02*
X49040D01*
X41420Y149634D02*
X53612D01*
X68852Y66322D02*
X73424D01*
X61232D02*
X66820D01*
X68852Y65814D02*
X73424D01*
X61232D02*
X66820D01*
X68852Y65306D02*
X72916D01*
X61232D02*
X66820D01*
X68344Y64798D02*
X72916D01*
X61232D02*
X66820D01*
X68344Y64290D02*
X72916D01*
X61232D02*
X66820D01*
X68344Y63782D02*
X72916D01*
X61232D02*
X66820D01*
X68344Y63274D02*
X72916D01*
X61232D02*
X66820D01*
X68344Y62766D02*
X73424D01*
X60724D02*
X66312D01*
X68344Y62258D02*
X73932D01*
X60724D02*
X66312D01*
X67836Y61750D02*
X70376D01*
X60216D02*
X65804D01*
X67836Y61242D02*
X70376D01*
X60216D02*
X65804D01*
X67328Y60734D02*
X70376D01*
X60216D02*
X65804D01*
X67328Y60226D02*
X70376D01*
X59708D02*
X65804D01*
X67328Y59718D02*
X70376D01*
X59708D02*
X65296D01*
X66820Y59210D02*
X69868D01*
X59708D02*
X65296D01*
X71392Y58702D02*
X73932D01*
X66820D02*
X69868D01*
X59708D02*
X64788D01*
X70884Y58194D02*
X73932D01*
X66312D02*
X69360D01*
X60216D02*
X64788D01*
X70884Y57686D02*
X73932D01*
X66312D02*
X69360D01*
X60216D02*
X64788D01*
X70884Y57178D02*
X73932D01*
X65804D02*
X68852D01*
X60216D02*
X64788D01*
X70376Y56670D02*
X73424D01*
X60216D02*
X68852D01*
X70376Y56162D02*
X73424D01*
X60216D02*
X68852D01*
X70376Y55654D02*
X73424D01*
X60724D02*
X68852D01*
X60724Y55146D02*
X72916D01*
X60724Y54638D02*
X72916D01*
X61740Y54130D02*
X72916D01*
X70376Y84102D02*
X74948D01*
X70884Y83594D02*
X73932D01*
X55644Y79530D02*
X62248D01*
X56660Y79022D02*
X62756D01*
X57168Y78514D02*
X63264D01*
X58184Y78006D02*
X63772D01*
X60216Y77498D02*
X64788D01*
X61740Y76990D02*
X65296D01*
X62248Y76482D02*
X65804D01*
X64280Y75974D02*
X66312D01*
X65804Y75466D02*
X67328D01*
X66820Y74958D02*
X67836D01*
X68344Y74450D02*
X68852D01*
X73932Y72926D02*
X74948D01*
X73424Y72418D02*
X74948D01*
X72916Y71910D02*
X74440D01*
X72408Y71402D02*
X74440D01*
X72408Y70894D02*
X74440D01*
X71900Y70386D02*
X74440D01*
X56152D02*
X68852D01*
X71900Y69878D02*
X74440D01*
X57168D02*
X69868D01*
X71900Y69370D02*
X74440D01*
X60724D02*
X70884D01*
X61740Y68862D02*
X74948D01*
X61740Y68354D02*
X74948D01*
X61232Y67846D02*
X74948D01*
X68852Y67338D02*
X73932D01*
X61232D02*
X67328D01*
X57676Y106962D02*
X61232D01*
X58184Y106454D02*
X62248D01*
X58184Y105946D02*
X63264D01*
X58692Y105438D02*
X63264D01*
X58692Y104930D02*
X61740D01*
X59200Y104422D02*
X60216D01*
X63772Y102390D02*
X64788D01*
X61740Y101882D02*
X63772D01*
X60216Y101374D02*
X63264D01*
X58184Y100866D02*
X62248D01*
X57168Y100358D02*
X62248D01*
X55644Y99850D02*
X61740D01*
X68344Y97818D02*
X71392D01*
X55644D02*
X59708D01*
X67328Y97310D02*
X72916D01*
X67328Y96802D02*
X73424D01*
X66820Y96294D02*
X73932D01*
X66820Y95786D02*
X74948D01*
X66312Y94770D02*
X69360D01*
X66312Y94262D02*
X68344D01*
X66312Y93754D02*
X67836D01*
X66312Y93246D02*
X67328D01*
X71392Y90706D02*
X71900D01*
X70884Y90198D02*
X71900D01*
X73424Y89690D02*
X74948D01*
X70376D02*
X71900D01*
X69868Y89182D02*
X71900D01*
X69868Y88674D02*
X72408D01*
X69360Y88166D02*
X72408D01*
X63772Y123726D02*
X65804D01*
X60724Y123218D02*
X67328D01*
X59200Y122202D02*
X67328D01*
X59200Y121694D02*
X67328D01*
X59200Y121186D02*
X67328D01*
X59200Y120678D02*
X67328D01*
X59200Y120170D02*
X67328D01*
X59200Y119662D02*
X67328D01*
X58692Y119154D02*
X67328D01*
X58184Y118646D02*
X67328D01*
X64788Y115090D02*
X73424D01*
X59708Y114074D02*
X60216D01*
X58184D02*
X59200D01*
X58184Y113566D02*
X62756D01*
X58692Y113058D02*
X64788D01*
X58692Y112550D02*
X65804D01*
X58692Y112042D02*
X67328D01*
X59200Y111534D02*
X68852D01*
X59708Y111026D02*
X70376D01*
X57168D02*
X57676D01*
X60216Y110518D02*
X70884D01*
X57168D02*
X57676D01*
X57168Y110010D02*
X58184D01*
X57168Y109502D02*
X58692D01*
X57168Y108994D02*
X58692D01*
X57168Y108486D02*
X59200D01*
X57168Y107978D02*
X60216D01*
X65296Y147602D02*
X68344D01*
X60724D02*
X64788D01*
X61232Y147094D02*
X68344D01*
X61740Y146586D02*
X67836D01*
X62248Y146078D02*
X67328D01*
X63264Y145570D02*
X66820D01*
X63264Y145062D02*
X66820D01*
X63264Y144554D02*
X66820D01*
X63264Y144046D02*
X66820D01*
X63264Y143538D02*
X67328D01*
X63264Y143030D02*
X67328D01*
X63264Y142522D02*
X65804D01*
X72408Y142014D02*
X74948D01*
X70376Y141506D02*
X74948D01*
X57676Y139982D02*
X63264D01*
X56660Y139474D02*
X63772D01*
X68344Y135918D02*
X74948D01*
X68344Y135410D02*
X74948D01*
X68344Y134902D02*
X74948D01*
X68344Y134394D02*
X74948D01*
X59200Y133378D02*
X67328D01*
X59200Y132870D02*
X67328D01*
X59200Y132362D02*
X67328D01*
X59200Y131854D02*
X67328D01*
X58692Y131346D02*
X67328D01*
X58692Y130838D02*
X67328D01*
X56152Y129314D02*
X66820D01*
X71900Y151158D02*
X72408D01*
X41928Y106454D02*
X52088D01*
X42436Y105946D02*
X49548D01*
X42436Y105438D02*
X48532D01*
X42436Y104930D02*
X45992D01*
X42436Y104422D02*
X44976D01*
X42436Y103914D02*
X44976D01*
X42436Y103406D02*
X44976D01*
X41420Y102898D02*
X44976D01*
X39896Y102390D02*
X44976D01*
X47008Y101882D02*
X53612D01*
X38372D02*
X44976D01*
X46500Y101374D02*
X52088D01*
X36340D02*
X44976D01*
Y100866D02*
X50564D01*
X45484Y100358D02*
X50056D01*
X45992Y99850D02*
X49548D01*
X45992Y99342D02*
X50056D01*
X45484Y98834D02*
X50564D01*
X44976Y98326D02*
X50056D01*
X43960Y97818D02*
X49040D01*
X43452Y97310D02*
X48024D01*
X42436Y96802D02*
X47516D01*
X41928Y96294D02*
X46500D01*
X41420Y95786D02*
X45992D01*
X40912Y95278D02*
X45484D01*
X40404Y94770D02*
X44468D01*
X39896Y94262D02*
X43960D01*
X39388Y93754D02*
X43452D01*
X38880Y93246D02*
X42436D01*
X38372Y92738D02*
X41928D01*
X38372Y92230D02*
X41420D01*
X38372Y91722D02*
X41928D01*
X38880Y91214D02*
X41928D01*
X38880Y90706D02*
X42436D01*
X39388Y90198D02*
X42436D01*
X39896Y89690D02*
X42944D01*
X39896Y89182D02*
X43452D01*
X40404Y88674D02*
X43452D01*
X40404Y88166D02*
X43960D01*
X40912Y87658D02*
X44468D01*
X41420Y127282D02*
X49040D01*
X41420Y126774D02*
X49040D01*
X41420Y126266D02*
X49040D01*
X41420Y125758D02*
X49040D01*
X41420Y125250D02*
X49040D01*
X41420Y124742D02*
X49040D01*
X41420Y124234D02*
X49040D01*
X41420Y123726D02*
X49040D01*
X41420Y123218D02*
X49040D01*
X41420Y122710D02*
X49040D01*
X41420Y122202D02*
X49040D01*
X41420Y121694D02*
X49040D01*
X41420Y121186D02*
X49040D01*
X41420Y120678D02*
X49040D01*
X41420Y120170D02*
X49040D01*
X41420Y119662D02*
X49040D01*
X41420Y119154D02*
X49040D01*
X41420Y118646D02*
X49040D01*
X41420Y118138D02*
X49040D01*
X41420Y117630D02*
X49040D01*
X41420Y117122D02*
X49040D01*
X41420Y116614D02*
X49040D01*
X41420Y116106D02*
X49040D01*
X41420Y115598D02*
X49040D01*
X41420Y115090D02*
X49548D01*
X40912Y114582D02*
X50056D01*
X40912Y114074D02*
X50056D01*
X51580Y113566D02*
X54628D01*
X40404D02*
X50056D01*
X51580Y113058D02*
X54120D01*
X40404D02*
X50056D01*
X51580Y112550D02*
X54120D01*
X40404D02*
X50056D01*
X51580Y112042D02*
X54120D01*
X40404D02*
X50056D01*
X51580Y111534D02*
X54120D01*
X40404D02*
X50056D01*
X51580Y111026D02*
X54120D01*
X40404D02*
X50056D01*
X51580Y110518D02*
X54628D01*
X40404D02*
X50056D01*
X51580Y110010D02*
X54628D01*
X40404D02*
X48532D01*
X51580Y109502D02*
X54628D01*
X40404D02*
X46500D01*
X40404Y108994D02*
X45484D01*
X41420Y108486D02*
X43452D01*
X50564Y147094D02*
X54120D01*
X49548Y146586D02*
X54628D01*
X42944Y145062D02*
X44468D01*
X46500Y144554D02*
X50056D01*
X41928D02*
X44468D01*
X45992Y144046D02*
X49040D01*
X39896D02*
X43960D01*
X45484Y143538D02*
X48532D01*
X37864D02*
X43960D01*
X45484Y143030D02*
X48532D01*
X36848D02*
X43960D01*
X35324D02*
X35832D01*
X45484Y142522D02*
X48532D01*
X35324D02*
X43960D01*
X45484Y142014D02*
X48532D01*
X100856Y109502D02*
X124224D01*
X100856Y108994D02*
X138448D01*
X99840Y107978D02*
X136924D01*
X100348Y108486D02*
X137432D01*
X136924Y148110D02*
X138956D01*
X140988Y127790D02*
X149116D01*
X165372Y107470D02*
X175532D01*
X167912Y127790D02*
X175024D01*
X159276D02*
X167404D01*
X177564Y107470D02*
X180104D01*
X181120Y127790D02*
X184168D01*
X13988Y106962D02*
X16528D01*
X13988Y106454D02*
X16528D01*
X13988Y105946D02*
X16528D01*
X13988Y105438D02*
X16528D01*
X13988Y104930D02*
X16528D01*
X13988Y104422D02*
X16528D01*
X13988Y103914D02*
X16528D01*
X13988Y103406D02*
X16528D01*
X13988Y102898D02*
X16528D01*
X13988Y102390D02*
X16528D01*
X13988Y101882D02*
X16528D01*
X13988Y101374D02*
X16528D01*
X13988Y100866D02*
X16528D01*
X13988Y100358D02*
X16528D01*
X13988Y99850D02*
X16528D01*
X13988Y99342D02*
X16528D01*
X13988Y98834D02*
X16528D01*
X13988Y98326D02*
X16528D01*
X13988Y97818D02*
X16528D01*
X13988Y97310D02*
X16528D01*
X13988Y96802D02*
X16528D01*
X13988Y96294D02*
X16528D01*
X13988Y95786D02*
X16528D01*
X13988Y95278D02*
X16528D01*
X13988Y94770D02*
X16528D01*
X13988Y94262D02*
X24148D01*
X13988Y93754D02*
X23132D01*
X13988Y93246D02*
X21608D01*
X13988Y92738D02*
X20084D01*
X13988Y92230D02*
X18560D01*
X13988Y91722D02*
X18052D01*
X13988Y91214D02*
X16528D01*
X13988Y90706D02*
X15004D01*
X13988Y90198D02*
X14496D01*
X11956Y127282D02*
X15004D01*
X11956Y126774D02*
X15004D01*
X11956Y126266D02*
X15004D01*
X11956Y125758D02*
X15004D01*
X11956Y125250D02*
X15004D01*
X11956Y124742D02*
X15004D01*
X11956Y124234D02*
X15004D01*
X11956Y123726D02*
X15004D01*
X11956Y123218D02*
X15004D01*
X11956Y122710D02*
X15004D01*
X11956Y122202D02*
X15004D01*
X11956Y121694D02*
X15004D01*
X11956Y121186D02*
X15004D01*
X11956Y120678D02*
X15004D01*
X11956Y120170D02*
X15004D01*
X11956Y119662D02*
X15512D01*
X11956Y119154D02*
X16528D01*
X68344Y122710D02*
X78504D01*
X50056D02*
X67328D01*
X27704D02*
X38372D01*
X68344Y122202D02*
X78504D01*
X50056D02*
X58692D01*
X68344Y121694D02*
X78504D01*
X49548D02*
X58184D01*
X68344Y121186D02*
X77996D01*
X49548D02*
X58184D01*
X68344Y120678D02*
X77996D01*
X49548D02*
X57676D01*
X68344Y120170D02*
X77488D01*
X49548D02*
X57676D01*
X68344Y119662D02*
X77488D01*
X49548D02*
X57676D01*
X68344Y119154D02*
X77488D01*
X49548D02*
X57676D01*
X68344Y118646D02*
X76980D01*
X49548D02*
X57676D01*
X68344Y118138D02*
X76980D01*
X49548D02*
X67328D01*
X68344Y117630D02*
X76980D01*
X49548D02*
X67328D01*
X68344Y117122D02*
X76980D01*
X50056D02*
X67328D01*
X50056Y116614D02*
X76472D01*
X50056Y116106D02*
X75964D01*
X61740Y115598D02*
X75964D01*
X50056D02*
X58184D01*
X50564Y115090D02*
X55644D01*
X66312Y114582D02*
X87140D01*
X51072D02*
X55136D01*
X67328Y114074D02*
X85616D01*
X51580D02*
X55136D01*
X68344Y113566D02*
X83076D01*
X69868Y113058D02*
X81044D01*
X72408Y112042D02*
X76980D01*
X31768Y111026D02*
X38372D01*
X31768Y110518D02*
X38372D01*
X60724Y110010D02*
X90696D01*
X31768D02*
X38880D01*
X61232Y109502D02*
X90188D01*
X31260D02*
X38880D01*
X61740Y108994D02*
X90188D01*
X50564D02*
X55136D01*
X31260D02*
X38880D01*
X62248Y108486D02*
X89680D01*
X48532D02*
X55136D01*
X31260D02*
X38880D01*
X63264Y107978D02*
X89172D01*
X45992D02*
X55136D01*
X30752D02*
X38880D01*
X95268Y147602D02*
X96792D01*
X74948D02*
X77996D01*
X30244D02*
X45484D01*
X87140Y147094D02*
X97300D01*
X74948D02*
X77996D01*
X30244D02*
X42436D01*
X87140Y146586D02*
X97300D01*
X74948D02*
X77996D01*
X30244D02*
X41420D01*
X87648Y146078D02*
X97300D01*
X74948D02*
X77996D01*
X48532D02*
X55644D01*
X88664Y145570D02*
X97808D01*
X74948D02*
X77996D01*
X47516D02*
X55644D01*
X74948Y145062D02*
X78504D01*
X46500D02*
X56152D01*
X74948Y144554D02*
X78504D01*
X52596D02*
X56152D01*
X93236Y144046D02*
X97300D01*
X74440D02*
X77488D01*
X53104D02*
X56152D01*
X91204Y143538D02*
X99332D01*
X53104D02*
X55644D01*
X90696Y143030D02*
X99840D01*
X53104D02*
X55644D01*
X89680Y142522D02*
X100856D01*
X52088D02*
X55644D01*
X51580Y142014D02*
X55136D01*
X50564Y141506D02*
X55136D01*
X67328Y140998D02*
X75456D01*
X67328Y140490D02*
X75456D01*
X67328Y139982D02*
X75456D01*
X67328Y139474D02*
X75456D01*
X67328Y138966D02*
X75456D01*
X55136D02*
X64788D01*
X67328Y138458D02*
X75456D01*
X54120D02*
X65804D01*
X67328Y137950D02*
X75456D01*
X53612D02*
X65804D01*
X67328Y137442D02*
X75456D01*
X52596D02*
X66820D01*
X67328Y136934D02*
X75456D01*
X52088D02*
X66820D01*
X67328Y136426D02*
X75456D01*
X51580D02*
X66820D01*
X75456Y135918D02*
X85616D01*
X50564D02*
X67328D01*
X75456Y135410D02*
X85616D01*
X42436D02*
X67328D01*
X75456Y134902D02*
X85616D01*
X40404D02*
X67328D01*
X75456Y134394D02*
X85616D01*
X40404D02*
X67328D01*
X68344Y133886D02*
X85616D01*
X40404D02*
X67328D01*
X68344Y133378D02*
X85616D01*
X40404D02*
X58692D01*
X68344Y132870D02*
X85616D01*
X40404D02*
X58184D01*
X34816D02*
X38880D01*
X68344Y132362D02*
X85616D01*
X40404D02*
X58184D01*
X32784D02*
X38880D01*
X68344Y131854D02*
X85616D01*
X40404D02*
X57676D01*
X31260D02*
X38880D01*
X68344Y131346D02*
X85616D01*
X50056D02*
X57676D01*
X30244D02*
X38880D01*
X68344Y130838D02*
X85616D01*
X50056D02*
X57676D01*
X30244D02*
X38880D01*
X68344Y130330D02*
X85616D01*
X50056D02*
X67328D01*
X29736D02*
X38880D01*
X68344Y129822D02*
X85616D01*
X50056D02*
X67328D01*
X29736D02*
X38880D01*
X68344Y129314D02*
X85616D01*
X51072D02*
X55136D01*
X29736D02*
X38880D01*
X68344Y128806D02*
X85616D01*
X55136D02*
X66820D01*
X29228D02*
X38880D01*
X50056Y94262D02*
X58184D01*
X71900Y93754D02*
X76980D01*
X49040D02*
X57676D01*
X94252Y93246D02*
X100856D01*
X72408D02*
X76980D01*
X48532D02*
X57676D01*
X94252Y92738D02*
X100856D01*
X72916D02*
X77488D01*
X48024D02*
X57168D01*
X94252Y92230D02*
X100348D01*
X73424D02*
X78504D01*
X47008D02*
X57168D01*
X94252Y91722D02*
X99332D01*
X73424D02*
X78504D01*
X46500D02*
X57168D01*
X94252Y91214D02*
X98824D01*
X45992D02*
X57168D01*
X46500Y90706D02*
X57168D01*
X47008Y90198D02*
X57168D01*
X75456Y89690D02*
X85108D01*
X47008D02*
X57168D01*
X73424Y89182D02*
X75456D01*
X47516D02*
X57168D01*
X72916Y88674D02*
X75456D01*
X48024D02*
X57168D01*
X72916Y88166D02*
X75964D01*
X48532D02*
X57168D01*
X68852Y87658D02*
X76472D01*
X49040D02*
X57676D01*
X68344Y127282D02*
X85616D01*
X53104D02*
X65804D01*
X28720D02*
X38372D01*
X68344Y126774D02*
X85616D01*
X52088D02*
X65296D01*
X28720D02*
X38372D01*
X68344Y126266D02*
X85616D01*
X51580D02*
X65296D01*
X28720D02*
X38372D01*
X68344Y125758D02*
X85616D01*
X51072D02*
X64788D01*
X28720D02*
X38372D01*
X68344Y125250D02*
X85616D01*
X50564D02*
X63772D01*
X28212D02*
X38372D01*
X68344Y124742D02*
X85616D01*
X50564D02*
X63264D01*
X28212D02*
X38372D01*
X68344Y124234D02*
X85616D01*
X50056D02*
X62756D01*
X28212D02*
X38372D01*
X68344Y123726D02*
X85616D01*
X50056D02*
X61740D01*
X28212D02*
X38372D01*
X68344Y123218D02*
X78504D01*
X50056D02*
X60216D01*
X27704D02*
X38372D01*
X68344Y128298D02*
X85616D01*
X54120D02*
X66820D01*
X29228D02*
X38880D01*
X62248Y154206D02*
X91204D01*
X57168Y153190D02*
X76980D01*
X54120Y152682D02*
X71392D01*
X52088Y152174D02*
X67328D01*
X88664Y151666D02*
X95776D01*
X50056D02*
X65296D01*
X87648Y151158D02*
X96792D01*
X74948D02*
X81552D01*
X48024D02*
X61740D01*
X87648Y150650D02*
X97300D01*
X71392D02*
X81552D01*
X44976D02*
X58692D01*
X92728Y150142D02*
X97300D01*
X71392D02*
X81552D01*
X42436D02*
X55136D01*
X90188Y149634D02*
X97300D01*
X71392D02*
X81552D01*
X88156Y149126D02*
X96792D01*
X71392D02*
X77996D01*
X30244D02*
X51580D01*
X87648Y148618D02*
X96284D01*
X74948D02*
X77996D01*
X30244D02*
X49040D01*
X125748Y86642D02*
X137940D01*
X125240Y86134D02*
X137432D01*
X125240Y85626D02*
X136924D01*
X124732Y85118D02*
X136416D01*
Y80038D02*
X140988D01*
X116096Y78006D02*
X128796D01*
X135908Y77498D02*
X141496D01*
X115588D02*
X127272D01*
X134892Y76990D02*
X140480D01*
X114064D02*
X125748D01*
X133876Y76482D02*
X140480D01*
X113556D02*
X125240D01*
X132860Y75974D02*
X138956D01*
X112540D02*
X123208D01*
X131336Y75466D02*
X137940D01*
X111016D02*
X121176D01*
X130320Y74958D02*
X137432D01*
X128796Y74450D02*
X136416D01*
X114572Y69370D02*
X126256D01*
X109492Y68862D02*
X126256D01*
X177056Y106962D02*
X180104D01*
X154704D02*
X162832D01*
X177056Y106454D02*
X180104D01*
X155212D02*
X162832D01*
X177056Y105946D02*
X180104D01*
X155212D02*
X162832D01*
X176548Y105438D02*
X179596D01*
X155720D02*
X162832D01*
X176548Y104930D02*
X179596D01*
X135908D02*
X139464D01*
X176548Y104422D02*
X179596D01*
X134384D02*
X139464D01*
X176548Y103914D02*
X179596D01*
X133876D02*
X139464D01*
X176548Y103406D02*
X179596D01*
X132352D02*
X138956D01*
X176548Y102898D02*
X179596D01*
X132860D02*
X138956D01*
X176548Y102390D02*
X179088D01*
X133876D02*
X138448D01*
X176040Y101882D02*
X179088D01*
X147592D02*
X157752D01*
X134384D02*
X137940D01*
X176040Y101374D02*
X179088D01*
X149116D02*
X159784D01*
X135400D02*
X137940D01*
X176040Y100866D02*
X179088D01*
X151656D02*
X161816D01*
X135908D02*
X137432D01*
X176040Y100358D02*
X179088D01*
X152672D02*
X162832D01*
X136416D02*
X136924D01*
X176040Y99850D02*
X178580D01*
X154704D02*
X164864D01*
X175532Y99342D02*
X178580D01*
X175532Y98834D02*
X178580D01*
X175532Y98326D02*
X178580D01*
X175532Y97818D02*
X178072D01*
X175532Y97310D02*
X178072D01*
X175532Y96802D02*
X178072D01*
X175024Y96294D02*
X178072D01*
X167912Y95786D02*
X178072D01*
X168928Y95278D02*
X178072D01*
X170452Y94770D02*
X177564D01*
X127780D02*
X136924D01*
X91712Y64290D02*
X92220D01*
X80536D02*
X88156D01*
X92220Y63782D02*
X93744D01*
X79520D02*
X85108D01*
X78504Y63274D02*
X82568D01*
X77996Y62766D02*
X82060D01*
X76980Y62258D02*
X81044D01*
X85616Y59210D02*
X92220D01*
X79520Y57178D02*
X91712D01*
X88664Y56670D02*
X91712D01*
X80028D02*
X87140D01*
X88664Y56162D02*
X91712D01*
X84092D02*
X87140D01*
X80028D02*
X82568D01*
X88664Y55654D02*
X91712D01*
X84092D02*
X87140D01*
X80028D02*
X82568D01*
X89172Y55146D02*
X91712D01*
X84092D02*
X87140D01*
X79520D02*
X82568D01*
X88664Y54638D02*
X92220D01*
X84092D02*
X87140D01*
X79520D02*
X82568D01*
X88664Y54130D02*
X92220D01*
X84092D02*
X87140D01*
X79520D02*
X82568D01*
X89172Y53622D02*
X92220D01*
X84092D02*
X87140D01*
X79012D02*
X82568D01*
X84092Y53114D02*
X87140D01*
X79012D02*
X82060D01*
X84092Y52606D02*
X87648D01*
X79012D02*
X82060D01*
X78504Y48034D02*
X91712D01*
X81552Y47526D02*
X87648D01*
X79012Y86642D02*
X82568D01*
X86124Y85118D02*
X90188D01*
X83076Y84610D02*
X92220D01*
X81552Y84102D02*
X93744D01*
X80536Y83594D02*
X93744D01*
X80028Y83086D02*
X95268D01*
X79520Y82578D02*
X94760D01*
X87140Y76990D02*
X87648D01*
X82060D02*
X82568D01*
X86632Y76482D02*
X87648D01*
X82060D02*
X82568D01*
X86124Y75974D02*
X88156D01*
X81552D02*
X83076D01*
X81552Y75466D02*
X93236D01*
X81552Y74958D02*
X92220D01*
X79012Y74450D02*
X91712D01*
X79012Y73942D02*
X90696D01*
X79520Y73434D02*
X90188D01*
X80028Y72926D02*
X89172D01*
X80536Y72418D02*
X87648D01*
X81552Y71910D02*
X86632D01*
X82060Y71402D02*
X85108D01*
Y69878D02*
X90188D01*
X82060Y69370D02*
X92728D01*
X80536Y68862D02*
X93744D01*
X79012Y68354D02*
X94252D01*
X79012Y67846D02*
X94252D01*
X77996Y67338D02*
X94252D01*
X75964Y97818D02*
X84600D01*
X75964Y97310D02*
X84600D01*
X76472Y96802D02*
X84600D01*
X76980Y96294D02*
X84092D01*
X76980Y95786D02*
X84092D01*
X76980Y95278D02*
X84092D01*
X77488Y94770D02*
X84092D01*
X77996Y94262D02*
X84092D01*
X78504Y93754D02*
X83584D01*
X78504Y93246D02*
X83584D01*
X79012Y92738D02*
X83584D01*
X80028Y92230D02*
X83584D01*
X80028Y91722D02*
X83584D01*
X84600Y91214D02*
X85108D01*
X81552D02*
X83076D01*
X84092Y90706D02*
X85108D01*
X92220Y90198D02*
X92728D01*
X83584D02*
X85108D01*
X92220Y89690D02*
X93236D01*
X92220Y89182D02*
X94760D01*
X75964D02*
X84600D01*
X75964Y88674D02*
X84600D01*
X76980Y88166D02*
X84092D01*
X77488Y87658D02*
X83584D01*
X86632Y127282D02*
X94760D01*
X86632Y126774D02*
X94760D01*
X86632Y126266D02*
X94760D01*
X86632Y125758D02*
X94760D01*
X86632Y125250D02*
X94760D01*
X86632Y124742D02*
X94760D01*
X86632Y124234D02*
X94760D01*
X86632Y123726D02*
X94760D01*
X86632Y123218D02*
X95268D01*
X79012D02*
X85616D01*
X79012Y122710D02*
X85616D01*
X79012Y122202D02*
X85616D01*
X79012Y121694D02*
X86124D01*
X78504Y121186D02*
X86632D01*
X78504Y120678D02*
X86632D01*
X78504Y120170D02*
X86632D01*
X78504Y119662D02*
X86632D01*
X78504Y119154D02*
X86632D01*
X78504Y118646D02*
X86632D01*
X78504Y118138D02*
X86632D01*
X78504Y117630D02*
X86632D01*
X77488Y115090D02*
X91712D01*
X92220Y113058D02*
X93236D01*
X90696Y112550D02*
X92728D01*
X86632D02*
X87140D01*
X88664Y112042D02*
X92220D01*
X84600D02*
X87140D01*
X83076Y111534D02*
X91712D01*
X81552Y111026D02*
X91712D01*
X81044Y110518D02*
X91204D01*
X87140Y147602D02*
X91712D01*
X82568D02*
X85616D01*
X82568Y147094D02*
X85616D01*
X82568Y146586D02*
X85616D01*
X82568Y146078D02*
X85616D01*
X82568Y145570D02*
X85616D01*
X91204Y145062D02*
X93236D01*
X82060D02*
X86124D01*
X84600Y144554D02*
X85616D01*
X82060D02*
X84092D01*
Y143030D02*
X85616D01*
X77996Y142522D02*
X85616D01*
X77488Y142014D02*
X86632D01*
X77488Y141506D02*
X86632D01*
X77488Y140998D02*
X86632D01*
X76980Y140490D02*
X86632D01*
X76980Y139982D02*
X86632D01*
X76980Y139474D02*
X86632D01*
X76472Y138966D02*
X86632D01*
X76472Y138458D02*
X86632D01*
X75964Y137950D02*
X86632D01*
Y137442D02*
X95268D01*
X75964D02*
X86124D01*
X86632Y136934D02*
X95268D01*
X75964D02*
X85616D01*
X86632Y136426D02*
X95268D01*
X75964D02*
X85616D01*
X86632Y135918D02*
X94760D01*
X86632Y135410D02*
X94760D01*
X86632Y134902D02*
X94760D01*
X86632Y134394D02*
X94760D01*
X86632Y133886D02*
X94760D01*
X86632Y133378D02*
X94760D01*
X86632Y132870D02*
X94760D01*
X86632Y132362D02*
X94760D01*
X86632Y131854D02*
X94760D01*
X86632Y131346D02*
X94760D01*
X86632Y130838D02*
X94760D01*
X86632Y130330D02*
X94760D01*
X86632Y129822D02*
X94760D01*
X86632Y129314D02*
X94760D01*
X86632Y128806D02*
X94760D01*
X86632Y128298D02*
X94760D01*
X89680Y152174D02*
X95268D01*
X80536D02*
X81552D01*
X87648Y151666D02*
X88156D01*
X82060D02*
X86124D01*
X80536D02*
X81552D01*
X82060Y151158D02*
X85616D01*
X82568Y150650D02*
X85616D01*
X88664Y150142D02*
X89680D01*
X82568D02*
X85616D01*
X88664Y149634D02*
X89172D01*
X82568D02*
X85616D01*
X82568Y149126D02*
X85616D01*
X80536D02*
X81044D01*
X82568Y148618D02*
X85616D01*
X97808Y64290D02*
X101364D01*
X97300Y63782D02*
X100856D01*
X171976Y94262D02*
X177564D01*
X127780D02*
X137432D01*
X172992Y93754D02*
X177564D01*
X127780D02*
X137432D01*
X174516Y93246D02*
X177564D01*
X127780D02*
X136416D01*
X176040Y92738D02*
X177564D01*
X127272Y92230D02*
X136416D01*
X127272Y91722D02*
X136924D01*
X127272Y91214D02*
X137432D01*
X127272Y90706D02*
X137940D01*
X127272Y90198D02*
X137940D01*
X127272Y89690D02*
X138956D01*
X126764Y89182D02*
X138956D01*
X126764Y88674D02*
X139464D01*
X126256Y88166D02*
X139464D01*
X126256Y87658D02*
X138956D01*
X151656Y127282D02*
X157752D01*
X114064D02*
X139464D01*
X167912Y126774D02*
X177564D01*
X151656D02*
X157752D01*
X114064D02*
X138956D01*
X167912Y126266D02*
X177564D01*
X152164D02*
X157752D01*
X114064D02*
X137940D01*
X167912Y125758D02*
X178072D01*
X152164D02*
X157752D01*
X114064D02*
X137940D01*
X168420Y125250D02*
X178072D01*
X152164D02*
X157752D01*
X114064D02*
X136924D01*
X168928Y124742D02*
X178072D01*
X152164D02*
X158260D01*
X114064D02*
X135400D01*
X168928Y124234D02*
X178072D01*
X152164D02*
X158260D01*
X114064D02*
X133876D01*
X168928Y123726D02*
X178072D01*
X152164D02*
X158260D01*
X114064D02*
X130828D01*
X168928Y123218D02*
X178072D01*
X152164D02*
X158260D01*
X114064D02*
X130320D01*
X168420Y122710D02*
X178072D01*
X152164D02*
X158260D01*
X131844D02*
X137940D01*
X114064D02*
X130320D01*
X168420Y122202D02*
X178072D01*
X152164D02*
X158260D01*
X131844D02*
X138448D01*
X168420Y121694D02*
X178072D01*
X152672D02*
X158260D01*
X131336D02*
X139464D01*
X168420Y121186D02*
X178072D01*
X152672D02*
X167912D01*
X131336D02*
X139464D01*
X168420Y120678D02*
X178072D01*
X152672D02*
X167912D01*
X131336D02*
X139464D01*
X140480Y83086D02*
X145052D01*
X139464Y82578D02*
X144544D01*
X138956Y82070D02*
X143528D01*
X138448Y81562D02*
X143020D01*
X137432Y81054D02*
X142512D01*
X136924Y80546D02*
X141496D01*
X136924Y79530D02*
X140480D01*
X137432Y79022D02*
X140988D01*
X137432Y78514D02*
X140988D01*
X137432Y78006D02*
X142004D01*
X144036Y106962D02*
X150132D01*
X138956D02*
X140480D01*
X144036Y106454D02*
X150132D01*
X137940D02*
X140480D01*
X144036Y105946D02*
X150132D01*
X137432D02*
X139972D01*
X147592Y105438D02*
X150132D01*
X143528D02*
X146576D01*
X136924D02*
X139972D01*
X147592Y104930D02*
X150132D01*
X143020D02*
X146068D01*
X147592Y104422D02*
X150132D01*
X143020D02*
X146068D01*
X147592Y103914D02*
X150640D01*
X143020D02*
X146068D01*
X147592Y103406D02*
X152672D01*
X142512D02*
X146068D01*
X147592Y102898D02*
X154704D01*
X142512D02*
X145560D01*
X147592Y102390D02*
X155720D01*
X142512D02*
X145560D01*
X142004Y101882D02*
X145052D01*
X141496Y101374D02*
X144544D01*
X140988Y100866D02*
X144544D01*
X140988Y100358D02*
X144036D01*
X140480Y99850D02*
X144036D01*
X139972Y99342D02*
X143020D01*
X139464Y98834D02*
X143020D01*
X139464Y98326D02*
X143528D01*
X139464Y97818D02*
X144036D01*
X140480Y97310D02*
X144544D01*
X140988Y96802D02*
X145560D01*
X141496Y96294D02*
X146068D01*
X142004Y95786D02*
X146576D01*
X142512Y95278D02*
X147084D01*
X143020Y94770D02*
X147592D01*
X144036Y94262D02*
X147592D01*
X144036Y93754D02*
X147592D01*
X143528Y93246D02*
X147084D01*
X143020Y92738D02*
X146576D01*
X142512Y92230D02*
X146068D01*
X142004Y91722D02*
X146068D01*
X142004Y91214D02*
X147084D01*
X143020Y90706D02*
X147592D01*
X143528Y90198D02*
X148100D01*
X144036Y89690D02*
X148608D01*
X145052Y89182D02*
X149116D01*
X145560Y88674D02*
X149624D01*
X146068Y88166D02*
X149624D01*
X145560Y87658D02*
X149116D01*
X140988Y127282D02*
X149116D01*
X140988Y126774D02*
X149116D01*
X140988Y126266D02*
X149116D01*
X140988Y125758D02*
X149116D01*
X140988Y125250D02*
X149116D01*
X140988Y124742D02*
X149116D01*
X140988Y124234D02*
X149116D01*
X140988Y123726D02*
X149116D01*
X140988Y123218D02*
X149116D01*
X140988Y122710D02*
X149116D01*
X140988Y122202D02*
X149116D01*
X140988Y121694D02*
X149116D01*
X140988Y121186D02*
X149116D01*
X140988Y120678D02*
X149116D01*
X140988Y120170D02*
X149116D01*
X140988Y119662D02*
X149116D01*
X140988Y119154D02*
X149116D01*
X140988Y118646D02*
X149116D01*
X140480Y118138D02*
X149116D01*
X140480Y117630D02*
X149116D01*
X140480Y117122D02*
X149116D01*
X139464Y114074D02*
X149624D01*
X142004Y113566D02*
X149624D01*
X143020Y113058D02*
X149624D01*
X143020Y112550D02*
X149624D01*
X144036Y112042D02*
X149624D01*
X144036Y111534D02*
X149624D01*
X144036Y111026D02*
X149624D01*
X144036Y110518D02*
X149624D01*
X149116Y110010D02*
X149624D01*
X144544D02*
X147084D01*
X144544Y109502D02*
X147084D01*
X144544Y108994D02*
X147084D01*
X144036Y108486D02*
X147592D01*
X139972D02*
X140480D01*
X144036Y107978D02*
X150132D01*
X139464D02*
X140480D01*
X137432Y147602D02*
X140988D01*
X143020Y147094D02*
X144036D01*
X137432D02*
X140480D01*
X143020Y146586D02*
X145560D01*
X137432D02*
X140480D01*
X143020Y146078D02*
X147592D01*
X137432D02*
X140480D01*
X149116Y145570D02*
X149624D01*
X142512D02*
X147592D01*
X137432D02*
X140480D01*
X149116Y145062D02*
X152164D01*
X140988D02*
X147592D01*
X137432D02*
X140480D01*
X149624Y144554D02*
X153180D01*
X140988D02*
X147592D01*
X137432D02*
X140480D01*
X149624Y144046D02*
X153688D01*
X137432D02*
X147592D01*
X149624Y143538D02*
X152672D01*
X137432D02*
X147592D01*
X149624Y143030D02*
X152672D01*
X144544D02*
X147592D01*
X137432D02*
X144036D01*
X149624Y142522D02*
X152672D01*
X144544D02*
X147592D01*
X137432D02*
X143020D01*
X149624Y142014D02*
X152672D01*
X144544D02*
X147592D01*
X137432D02*
X142004D01*
X149624Y141506D02*
X152672D01*
X144544D02*
X147592D01*
X136924D02*
X142004D01*
X149624Y140998D02*
X152672D01*
X144544D02*
X147592D01*
X137432D02*
X140988D01*
X149624Y140490D02*
X152672D01*
X144544D02*
X147592D01*
X140480D02*
X140988D01*
X149624Y139982D02*
X153180D01*
X144036D02*
X147592D01*
X150132Y139474D02*
X153688D01*
X144036D02*
X147592D01*
X150640Y138966D02*
X154704D01*
X146576D02*
X147592D01*
X140480Y138458D02*
X143020D01*
X140480Y137950D02*
X144544D01*
X140480Y137442D02*
X147084D01*
X140480Y136934D02*
X148608D01*
X149624Y136426D02*
X151148D01*
X140480D02*
X148608D01*
X140480Y135918D02*
X152672D01*
X150132Y135410D02*
X154704D01*
X140480D02*
X149624D01*
X140480Y134902D02*
X149624D01*
X140480Y134394D02*
X149624D01*
X140480Y133886D02*
X149624D01*
X140988Y133378D02*
X149624D01*
X140988Y132870D02*
X149624D01*
X140988Y132362D02*
X149624D01*
X140988Y131854D02*
X149624D01*
X140988Y131346D02*
X149624D01*
X140988Y130838D02*
X149116D01*
X140988Y130330D02*
X149116D01*
X140988Y129822D02*
X149116D01*
X140988Y129314D02*
X149116D01*
X140988Y128806D02*
X149116D01*
X140988Y128298D02*
X149116D01*
X137432Y150650D02*
X151148D01*
X140988Y150142D02*
X153688D01*
X142512Y149634D02*
X154704D01*
X165880Y106962D02*
X175024D01*
X165880Y106454D02*
X175024D01*
X165880Y105946D02*
X175024D01*
X165880Y105438D02*
X175024D01*
X165880Y104930D02*
X174516D01*
X157752D02*
X162832D01*
X165880Y104422D02*
X174516D01*
X159276D02*
X162832D01*
X165880Y103914D02*
X174516D01*
X160800D02*
X162832D01*
X166388Y103406D02*
X174516D01*
X166388Y102898D02*
X174516D01*
X166388Y102390D02*
X174516D01*
X166896Y101882D02*
X174516D01*
X167912Y101374D02*
X174008D01*
X169436Y100866D02*
X174008D01*
X170452Y100358D02*
X174008D01*
X171976Y99850D02*
X174008D01*
X172992Y99342D02*
X174008D01*
X157244D02*
X166388D01*
X157752Y98834D02*
X167404D01*
X159784Y98326D02*
X168928D01*
X161816Y97818D02*
X170960D01*
X163848Y97310D02*
X172484D01*
X164356Y96802D02*
X172992D01*
X166388Y96294D02*
X174516D01*
X167912Y127282D02*
X176548D01*
X159276D02*
X167404D01*
X159276Y126774D02*
X167404D01*
X159276Y126266D02*
X167404D01*
X159276Y125758D02*
X167404D01*
X159276Y125250D02*
X167404D01*
X159276Y124742D02*
X167404D01*
X159276Y124234D02*
X167404D01*
X158768Y123726D02*
X167404D01*
X158768Y123218D02*
X167404D01*
X158768Y122710D02*
X167404D01*
X158768Y122202D02*
X167404D01*
X158768Y121694D02*
X167404D01*
X164356Y113058D02*
X176040D01*
X164864Y112550D02*
X176040D01*
X164864Y112042D02*
X176040D01*
X164864Y111534D02*
X176040D01*
X164864Y111026D02*
X175532D01*
X164864Y110518D02*
X175532D01*
X164864Y110010D02*
X175532D01*
X164864Y109502D02*
X175532D01*
X164864Y108994D02*
X175532D01*
X165372Y108486D02*
X175532D01*
X165372Y107978D02*
X175532D01*
X161816Y146078D02*
X164356D01*
X161816Y145570D02*
X164356D01*
X161816Y145062D02*
X164356D01*
X161816Y144554D02*
X164356D01*
X161816Y144046D02*
X164356D01*
X161816Y143538D02*
X164356D01*
X161816Y143030D02*
X164356D01*
X161816Y142522D02*
X164356D01*
X161816Y142014D02*
X164356D01*
X161816Y141506D02*
X164356D01*
X161816Y140998D02*
X164356D01*
X161816Y140490D02*
X164356D01*
X161816Y139982D02*
X164356D01*
X161816Y139474D02*
X164356D01*
X161816Y138966D02*
X164356D01*
X161816Y138458D02*
X164356D01*
X161816Y137950D02*
X164356D01*
X161816Y137442D02*
X164356D01*
X161816Y136934D02*
X165372D01*
X161816Y136426D02*
X166388D01*
X161816Y135918D02*
X168420D01*
X161816Y135410D02*
X169944D01*
X162832Y134902D02*
X171468D01*
X163848Y134394D02*
X172484D01*
X165372Y133886D02*
X174008D01*
X166896Y133378D02*
X175532D01*
X159276D02*
X160800D01*
X167912Y132870D02*
X176548D01*
X159276D02*
X161816D01*
X159276Y132362D02*
X163848D01*
X159276Y131854D02*
X164864D01*
X159276Y131346D02*
X166896D01*
X159276Y130838D02*
X166896D01*
X167912Y130330D02*
X168928D01*
X159276D02*
X167404D01*
X167912Y129822D02*
X170452D01*
X159276D02*
X167404D01*
X167912Y129314D02*
X171468D01*
X159276D02*
X167404D01*
X167912Y128806D02*
X172992D01*
X159276D02*
X167404D01*
X167912Y128298D02*
X174516D01*
X159276D02*
X167404D01*
X181120Y127282D02*
X184168D01*
X181120Y126774D02*
X184168D01*
X181120Y126266D02*
X184168D01*
X181120Y125758D02*
X184168D01*
X181120Y125250D02*
X184168D01*
X181120Y124742D02*
X184168D01*
X181120Y124234D02*
X184168D01*
X181120Y123726D02*
X184168D01*
X181120Y123218D02*
X184168D01*
X181120Y122710D02*
X184168D01*
X181120Y122202D02*
X184168D01*
X181120Y121694D02*
X184168D01*
X181120Y121186D02*
X184168D01*
X181120Y120678D02*
X184168D01*
X181120Y120170D02*
X184168D01*
X181120Y119662D02*
X184168D01*
X180612Y119154D02*
X184168D01*
X180104Y118646D02*
X184168D01*
X179596Y118138D02*
X183660D01*
X179596Y117630D02*
X183152D01*
X179088Y117122D02*
X182644D01*
X179088Y116614D02*
X182136D01*
X179088Y116106D02*
X181628D01*
X179088Y115598D02*
X181628D01*
X178580Y115090D02*
X181628D01*
X178580Y114582D02*
X181628D01*
X178580Y114074D02*
X181120D01*
X178072Y113566D02*
X181120D01*
X178072Y113058D02*
X181120D01*
X178072Y112550D02*
X181120D01*
X178072Y112042D02*
X181120D01*
X178072Y111534D02*
X181120D01*
X178072Y111026D02*
X181120D01*
X177564Y110518D02*
X180612D01*
X177564Y110010D02*
X180612D01*
X177564Y109502D02*
X180612D01*
X177564Y108994D02*
X180612D01*
X177564Y108486D02*
X180612D01*
X177564Y107978D02*
X180612D01*
X177564Y129314D02*
X184168D01*
X179088Y128806D02*
X184168D01*
X180612Y128298D02*
X184168D01*
X20084Y107470D02*
X30244D01*
X21608Y127790D02*
X27704D01*
X41420Y87150D02*
X44976D01*
X41420Y127790D02*
X49040D01*
X57676Y107470D02*
X60216D01*
X68852Y66830D02*
X73424D01*
X60724D02*
X66820D01*
X65296Y148110D02*
X68852D01*
X59708D02*
X63772D01*
X78504Y87150D02*
X82568D01*
X89172Y66830D02*
X94252D01*
X77488D02*
X82568D01*
Y148110D02*
X85616D01*
X86632Y127790D02*
X94760D01*
X132352Y148110D02*
X135908D01*
X125748D02*
X129812D01*
X121176D02*
X123716D01*
X144036Y107470D02*
X150640D01*
X139464D02*
X140480D01*
X145052Y87150D02*
X148608D01*
X12464Y118646D02*
X16528D01*
X12972Y118138D02*
X16528D01*
X13480Y117630D02*
X16528D01*
X13988Y117122D02*
X16528D01*
X13988Y116614D02*
X16528D01*
X13988Y116106D02*
X16528D01*
X13988Y115598D02*
X16528D01*
X13988Y115090D02*
X16528D01*
X13988Y114582D02*
X16528D01*
X13988Y114074D02*
X16528D01*
X13988Y113566D02*
X16528D01*
X13988Y113058D02*
X16528D01*
X13988Y112550D02*
X16528D01*
X13988Y112042D02*
X16528D01*
X13988Y111534D02*
X16528D01*
X13988Y111026D02*
X16528D01*
X13988Y110518D02*
X16528D01*
X13988Y110010D02*
X16528D01*
X13988Y109502D02*
X16528D01*
X13988Y108994D02*
X16528D01*
X13988Y108486D02*
X16528D01*
X13988Y107978D02*
X16528D01*
X14496Y130838D02*
X22116D01*
X12972Y130330D02*
X20592D01*
X11956Y129822D02*
X19576D01*
X11956Y129314D02*
X18560D01*
X11956Y128806D02*
X17036D01*
X11956Y128298D02*
X15512D01*
X92220Y63274D02*
X100856D01*
X92220Y62766D02*
X100348D01*
X92220Y62258D02*
X100348D01*
X91712Y61750D02*
X100348D01*
X91204Y61242D02*
X100348D01*
X90188Y60734D02*
X96284D01*
X88664Y60226D02*
X95776D01*
X87648Y59718D02*
X95776D01*
X93236Y59210D02*
X95776D01*
X71900D02*
X82568D01*
X93236Y58702D02*
X95776D01*
X74948D02*
X91712D01*
X93236Y58194D02*
X95776D01*
X75456D02*
X91712D01*
X93236Y57686D02*
X95776D01*
X75456D02*
X91712D01*
X93236Y57178D02*
X96284D01*
X75456D02*
X78504D01*
X93236Y56670D02*
X96284D01*
X75456D02*
X78504D01*
X93744Y56162D02*
X96284D01*
X75456D02*
X78504D01*
X93744Y55654D02*
X96792D01*
X74948D02*
X77996D01*
X93744Y55146D02*
X96792D01*
X74948D02*
X77996D01*
X93744Y54638D02*
X96792D01*
X74948D02*
X77996D01*
X93744Y54130D02*
X97300D01*
X74440D02*
X77488D01*
X62248Y53622D02*
X77488D01*
X63264Y53114D02*
X77488D01*
X63264Y52606D02*
X77488D01*
X64280Y52098D02*
X82568D01*
X71392Y49050D02*
X99332D01*
X73932Y48542D02*
X96284D01*
X93744Y86642D02*
X100348D01*
X68852D02*
X76472D01*
X49548D02*
X57676D01*
X94252Y86134D02*
X99332D01*
X68852D02*
X76472D01*
X50056D02*
X58184D01*
X95268Y85626D02*
X98316D01*
X69360D02*
X75964D01*
X51072D02*
X58184D01*
X69868Y85118D02*
X75964D01*
X51580D02*
X58184D01*
X69868Y84610D02*
X75456D01*
X51072D02*
X58692D01*
X50564Y84102D02*
X58692D01*
X50056Y83594D02*
X59200D01*
X50056Y83086D02*
X59200D01*
X51072Y82578D02*
X59708D01*
X79520Y82070D02*
X95776D01*
X51580D02*
X60216D01*
X79012Y81562D02*
X96792D01*
X52088D02*
X60216D01*
X77488Y81054D02*
X100348D01*
X53104D02*
X60724D01*
X75456Y80546D02*
X100348D01*
X54120D02*
X61232D01*
X75456Y80038D02*
X100348D01*
X54120D02*
X61740D01*
X70884Y79022D02*
X83584D01*
X70884Y78514D02*
X82568D01*
X71900Y78006D02*
X81552D01*
X72408Y77498D02*
X81044D01*
X89172Y76482D02*
X101364D01*
X89172Y75974D02*
X97300D01*
X49548D02*
X55136D01*
X50564Y75466D02*
X55136D01*
X74948Y73942D02*
X75456D01*
X74948Y73434D02*
X75456D01*
X50056D02*
X55136D01*
X50564Y72926D02*
X57168D01*
X51580Y72418D02*
X59708D01*
X52596Y71910D02*
X63264D01*
X53104Y71402D02*
X64788D01*
X54120Y70894D02*
X66820D01*
X64788Y106962D02*
X88664D01*
X42436D02*
X55644D01*
X30752D02*
X38880D01*
X66312Y106454D02*
X88156D01*
X53104D02*
X55644D01*
X30752D02*
X38880D01*
X67836Y105946D02*
X87648D01*
X53104D02*
X56152D01*
X30752D02*
X38880D01*
X68344Y105438D02*
X87648D01*
X53104D02*
X56152D01*
X30752D02*
X38880D01*
X69360Y104930D02*
X87648D01*
X53612D02*
X56660D01*
X30752D02*
X38880D01*
X70376Y104422D02*
X87140D01*
X52088D02*
X56660D01*
X30752D02*
X37864D01*
X70884Y103914D02*
X87140D01*
X51580D02*
X57168D01*
X30752D02*
X36848D01*
X71900Y103406D02*
X86632D01*
X50056D02*
X57168D01*
X30752D02*
X34816D01*
X72408Y102898D02*
X86632D01*
X48532D02*
X55644D01*
X72408Y102390D02*
X86632D01*
X48024D02*
X55136D01*
X73424Y101882D02*
X86124D01*
X73932Y101374D02*
X85616D01*
X73932Y100866D02*
X85616D01*
X33800D02*
X44468D01*
X74440Y100358D02*
X85616D01*
X33292D02*
X43452D01*
X74948Y99850D02*
X85616D01*
X31260D02*
X41420D01*
X75456Y99342D02*
X85108D01*
X54628D02*
X60724D01*
X29736D02*
X38880D01*
X75456Y98834D02*
X85108D01*
X54628D02*
X60724D01*
X28720D02*
X38372D01*
X75456Y98326D02*
X85108D01*
X55136D02*
X60216D01*
X27196D02*
X36340D01*
X55136Y97310D02*
X59200D01*
X54120Y96802D02*
X59200D01*
X53612Y96294D02*
X58692D01*
X52088Y95786D02*
X58692D01*
X66820Y95278D02*
X75456D01*
X52088D02*
X58184D01*
X70376Y94770D02*
X75964D01*
X50564D02*
X58184D01*
X71392Y94262D02*
X76472D01*
X113048Y113566D02*
X134892D01*
X153688Y113058D02*
X163848D01*
X115588D02*
X132860D01*
X153688Y112550D02*
X163848D01*
X154196Y112042D02*
X163848D01*
X136416D02*
X140988D01*
X154196Y111534D02*
X163848D01*
X134384D02*
X140988D01*
X154196Y111026D02*
X163848D01*
X132860D02*
X140480D01*
X154196Y110518D02*
X163848D01*
X131844D02*
X140480D01*
X154196Y110010D02*
X163848D01*
X129812D02*
X139464D01*
X154196Y109502D02*
X163340D01*
X125240D02*
X138956D01*
X154196Y108994D02*
X163340D01*
X154196Y108486D02*
X163340D01*
X154704Y107978D02*
X163340D01*
X150640Y147602D02*
X164356D01*
X153688Y147094D02*
X164356D01*
X154704Y146586D02*
X164356D01*
X155720Y143538D02*
X157752D01*
X155720Y143030D02*
X158768D01*
X156228Y142522D02*
X159784D01*
X156228Y142014D02*
X159784D01*
X20084Y118646D02*
X38372D01*
X20084Y118138D02*
X38372D01*
X20084Y117122D02*
X38372D01*
X20084Y119662D02*
X38372D01*
X20084Y117630D02*
X38372D01*
X20084Y119154D02*
X38372D01*
X20084Y116614D02*
X38372D01*
X20084Y116106D02*
X38372D01*
X20084Y120170D02*
X38372D01*
X20084Y120678D02*
X38372D01*
X114064Y127790D02*
X139464D01*
X19576Y122202D02*
X38372D01*
X19576Y121694D02*
X38372D01*
X20084Y121186D02*
X38372D01*
X151656Y127790D02*
X158260D01*
X148100Y148110D02*
X164356D01*
X125748Y87150D02*
X138448D01*
X154704Y107470D02*
X163340D01*
X29228Y127790D02*
X38880D01*
X53612D02*
X66312D01*
X68344D02*
X85616D01*
X30244Y148110D02*
X48024D01*
X74948D02*
X77996D01*
X87648D02*
X96284D01*
X49040Y87150D02*
X57676D01*
X68852D02*
X76472D01*
X93236D02*
X100856D01*
X30752Y107470D02*
X38880D01*
X44976D02*
X55136D01*
X63772D02*
X89172D01*
X11956Y127790D02*
X15004D01*
X13988Y107470D02*
X16528D01*
X147084Y148618D02*
X164356D01*
X145052Y149126D02*
X164356D01*
X134384Y151158D02*
X148100D01*
X130828Y151666D02*
X146068D01*
X128796Y152174D02*
X144036D01*
X124732Y152682D02*
X142004D01*
X119144Y153190D02*
X138956D01*
X116096Y153698D02*
X137432D01*
X114064Y128298D02*
X122192D01*
X122700D02*
X139464D01*
X151148D02*
X158768D01*
X114064Y128806D02*
X122192D01*
X122700D02*
X139464D01*
X151148D02*
X158768D01*
X114064Y129314D02*
X122192D01*
X122700D02*
X139972D01*
X151148D02*
X158768D01*
X114064Y129822D02*
X122192D01*
X123208D02*
X139972D01*
X151148D02*
X158768D01*
X177056D02*
X184168D01*
X114064Y130330D02*
X122192D01*
X124224D02*
X139972D01*
X150640D02*
X158768D01*
X175532D02*
X183152D01*
X114064Y130838D02*
X122192D01*
X125240D02*
X139972D01*
X150640D02*
X158768D01*
X174008D02*
X181628D01*
X114064Y131346D02*
X122192D01*
X125748D02*
X139972D01*
X150640D02*
X158768D01*
X172992D02*
X181120D01*
X114064Y131854D02*
X122192D01*
X128796D02*
X139972D01*
X150132D02*
X158768D01*
X171468D02*
X179596D01*
X114064Y132362D02*
X122192D01*
X130828D02*
X139972D01*
X150132D02*
X158768D01*
X169436D02*
X178072D01*
X114064Y132870D02*
X122192D01*
X131336D02*
X139972D01*
X150132D02*
X158768D01*
X114064Y133378D02*
X122192D01*
X131844D02*
X139972D01*
X150132D02*
X158768D01*
X114064Y133886D02*
X122192D01*
X131844D02*
X139464D01*
X150132D02*
X157752D01*
X114064Y134394D02*
X122192D01*
X131844D02*
X139464D01*
X150132D02*
X157752D01*
X114064Y134902D02*
X122192D01*
X131336D02*
X139464D01*
X150132D02*
X156736D01*
X114064Y135410D02*
X122192D01*
X122700D02*
X139464D01*
X114064Y135918D02*
X122192D01*
X122700D02*
X138956D01*
X114064Y136426D02*
X122192D01*
X122700D02*
X138956D01*
X154704D02*
X158768D01*
X114064Y136934D02*
X122192D01*
X122700D02*
X138448D01*
X154196D02*
X158768D01*
X122700Y137442D02*
X137940D01*
X152672D02*
X159276D01*
X122700Y137950D02*
X137432D01*
X151656D02*
X159276D01*
X122700Y138458D02*
X137432D01*
X151148D02*
X159276D01*
X122700Y138966D02*
X136416D01*
X156228D02*
X159276D01*
X156228Y139474D02*
X159276D01*
X156228Y139982D02*
X159276D01*
X156228Y140490D02*
X159276D01*
X156228Y140998D02*
X159276D01*
X156228Y141506D02*
X159276D01*
X121176Y81562D02*
X131336D01*
X120668Y81054D02*
X131336D01*
X120160Y80546D02*
X131844D01*
X119144Y80038D02*
X132352D01*
X118636Y79530D02*
X131336D01*
X117620Y79022D02*
X130320D01*
X117112Y78514D02*
X130320D01*
X127272Y73942D02*
X135400D01*
X126256Y73434D02*
X134384D01*
X124224Y72926D02*
X132860D01*
X122192Y72418D02*
X131336D01*
X122192Y71910D02*
X129304D01*
X122700Y71402D02*
X128796D01*
X122192Y70894D02*
X127272D01*
X119144Y70386D02*
X125748D01*
X117620Y69878D02*
X125748D01*
X125240Y101374D02*
X126256D01*
X125748Y100866D02*
X127780D01*
X125748Y100358D02*
X128288D01*
X126256Y99850D02*
X129304D01*
X126256Y99342D02*
X130320D01*
X126256Y98834D02*
X130828D01*
X126764Y98326D02*
X131844D01*
X127272Y97818D02*
X132860D01*
X127272Y97310D02*
X133876D01*
X127272Y96802D02*
X133876D01*
X127272Y96294D02*
X134892D01*
X127272Y95786D02*
X135908D01*
X127272Y95278D02*
X135908D01*
X127780Y92738D02*
X135908D01*
X131844Y123726D02*
X132860D01*
X131844Y123218D02*
X135908D01*
X122700Y120170D02*
X130320D01*
X116604Y112550D02*
X132352D01*
X118128Y112042D02*
X129812D01*
X120668Y111534D02*
X126764D01*
X117620Y110010D02*
X120668D01*
X132352Y147602D02*
X135400D01*
X125748D02*
X129304D01*
X121176D02*
X124224D01*
X132352Y147094D02*
X135400D01*
X125240D02*
X128796D01*
X121684D02*
X124224D01*
X132352Y146586D02*
X135400D01*
X122192D02*
X128796D01*
X132352Y146078D02*
X135400D01*
X122192D02*
X128796D01*
X132352Y145570D02*
X135400D01*
X122700D02*
X127780D01*
X132352Y145062D02*
X135400D01*
X122700D02*
X127780D01*
X132352Y144554D02*
X135400D01*
X122700D02*
X127780D01*
X132352Y144046D02*
X135400D01*
X123208D02*
X127272D01*
X132352Y143538D02*
X135400D01*
X123208D02*
X127272D01*
X132352Y143030D02*
X135400D01*
X125240D02*
X127272D01*
X131336Y142522D02*
X135400D01*
X132860Y142014D02*
X135908D01*
X134384Y141506D02*
X135908D01*
X124732Y140998D02*
X132352D01*
X123208Y140490D02*
X134384D01*
X122700Y139982D02*
X135400D01*
X122700Y139474D02*
X135908D01*
X122700Y134902D02*
X130828D01*
X122700Y134394D02*
X130320D01*
X122700Y133886D02*
X130320D01*
X123716Y133378D02*
X130320D01*
X123716Y132870D02*
X130320D01*
X127780Y132362D02*
X130320D01*
X119652Y150650D02*
X123208D01*
X126256Y150142D02*
X128796D01*
X120160D02*
X123208D01*
X126256Y149634D02*
X130320D01*
X120160D02*
X123208D01*
X131336Y149126D02*
X134384D01*
X126256D02*
X130320D01*
X120668D02*
X123716D01*
X132352Y148618D02*
X135908D01*
X125748D02*
X129812D01*
X120668D02*
X123716D01*
X144544Y86642D02*
X148100D01*
X144036Y86134D02*
X148100D01*
X143528Y85626D02*
X147592D01*
X143020Y85118D02*
X147084D01*
X142512Y84610D02*
X146576D01*
X142004Y84102D02*
X146068D01*
X141496Y83594D02*
X145560D01*
X97808Y60734D02*
X100348D01*
X97808Y60226D02*
X100348D01*
X97808Y59718D02*
X100856D01*
X97808Y59210D02*
X100856D01*
X97808Y58702D02*
X100856D01*
X97808Y58194D02*
X100856D01*
X97808Y57686D02*
X100856D01*
X97808Y57178D02*
X101364D01*
X97808Y56670D02*
X101364D01*
X97808Y56162D02*
X101364D01*
X97808Y75974D02*
X98316D01*
Y69370D02*
X98824D01*
Y68862D02*
X99840D01*
X98824Y68354D02*
X100348D01*
X98824Y67846D02*
X100856D01*
X65804Y150142D02*
X70376D01*
X65804Y149634D02*
X70376D01*
X65804Y149126D02*
X69868D01*
X60724D02*
X63772D01*
X71392Y148618D02*
X72408D01*
X65804D02*
X69360D01*
X59708D02*
X63772D01*
X90696Y66322D02*
X93744D01*
X76980D02*
X81552D01*
X82060Y64798D02*
X86632D01*
X97300Y157254D02*
X98316D01*
X124224Y84610D02*
X135908D01*
X123716Y84102D02*
X134892D01*
X123716Y83594D02*
X134384D01*
X122700Y83086D02*
X133368D01*
X122192Y82578D02*
X132352D01*
X121684Y82070D02*
X131336D01*
X98316Y104930D02*
X126764D01*
X20084Y115090D02*
X38372D01*
X20084Y114582D02*
X38372D01*
X20084Y114074D02*
X38372D01*
X20084Y113566D02*
X38372D01*
X98824Y105946D02*
X131336D01*
X105936Y118646D02*
X121176D01*
X20084Y112042D02*
X38372D01*
X20084Y111534D02*
X38372D01*
X104920Y119662D02*
X121684D01*
X105428Y119154D02*
X121176D01*
X20084Y113058D02*
X38372D01*
X20084Y112550D02*
X38372D01*
X87140Y122202D02*
X130320D01*
X99332Y106962D02*
X134892D01*
X98824Y106454D02*
X132860D01*
X87140Y121694D02*
X129812D01*
X87140Y121186D02*
X130320D01*
X98824Y105438D02*
X130320D01*
X103396Y67846D02*
X121176D01*
X104920Y68354D02*
X122700D01*
X20084Y115598D02*
X38372D01*
X104412Y120678D02*
X130320D01*
X104412Y120170D02*
X121684D01*
X168420D02*
X177564D01*
X152672D02*
X167912D01*
X130828D02*
X139464D01*
X152672Y119662D02*
X177056D01*
X122700D02*
X139464D01*
X168420Y119154D02*
X177056D01*
X152672D02*
X167912D01*
X122700D02*
X139464D01*
X152672Y118646D02*
X177056D01*
X123716D02*
X139464D01*
X152672Y118138D02*
X177056D01*
X123716D02*
X139464D01*
X106952D02*
X120668D01*
X153180Y117630D02*
X176548D01*
X124224D02*
X139464D01*
X106952D02*
X120668D01*
X153180Y117122D02*
X176548D01*
X124732D02*
X139464D01*
X153180Y116614D02*
X176548D01*
X125240D02*
X149116D01*
X153180Y116106D02*
X176548D01*
X126256D02*
X149116D01*
X153688Y115598D02*
X176548D01*
X126256D02*
X149116D01*
X153688Y115090D02*
X176548D01*
X127272D02*
X149116D01*
X153688Y114582D02*
X176548D01*
X127780D02*
X149624D01*
X153688Y114074D02*
X176040D01*
X125748D02*
X137432D01*
X110508D02*
X121684D01*
X153688Y113566D02*
X176040D01*
X104412Y138966D02*
X121176D01*
X104920Y154206D02*
X133876D01*
X104412Y139474D02*
X120668D01*
X87140Y138458D02*
X121176D01*
X96792Y137442D02*
X121684D01*
X87140Y137950D02*
X121176D01*
X104412Y139982D02*
X120668D01*
X104412Y140490D02*
X120160D01*
X99840Y107470D02*
X135908D01*
X65804Y154714D02*
X130320D01*
X72408Y155730D02*
X123716D01*
X68344Y155222D02*
X127780D01*
X87140Y79022D02*
X104920D01*
X87648Y78514D02*
X104920D01*
X89172Y76990D02*
X102380D01*
X88664Y78006D02*
X103904D01*
X70376Y79530D02*
X105428D01*
X68852Y50066D02*
X103396D01*
X88664Y77498D02*
X103396D01*
X69868Y49558D02*
X101872D01*
Y92230D02*
X105936D01*
X102380Y92738D02*
X107460D01*
X103396Y93246D02*
X108476D01*
X103904Y93754D02*
X109492D01*
X103904Y94262D02*
X111016D01*
X106952Y96802D02*
X115588D01*
X107460Y97310D02*
X115588D01*
X111016Y98326D02*
X113556D01*
X96284Y99850D02*
X108476D01*
Y97818D02*
X114572D01*
X96284Y100358D02*
X109492D01*
X96792Y126266D02*
X112540D01*
X101364Y91722D02*
X105936D01*
X100856Y91214D02*
X105428D01*
X106952Y89690D02*
X108984D01*
X96792Y101374D02*
X111016D01*
X106952Y90706D02*
X107968D01*
X103904Y89182D02*
X105936D01*
X106952D02*
X109492D01*
X99840Y90706D02*
X104412D01*
X106952Y88674D02*
X109492D01*
X96792Y126774D02*
X112540D01*
X103396Y88166D02*
X105936D01*
X96792Y127282D02*
X112540D01*
X106952Y88166D02*
X109492D01*
X99332Y90198D02*
X104412D01*
X96792Y100866D02*
X109492D01*
X98824Y89690D02*
X103904D01*
X104412D02*
X105428D01*
X106952Y90198D02*
X108476D01*
X103904Y88674D02*
X105936D01*
X96792Y89182D02*
X103396D01*
X102380Y87658D02*
X110000D01*
X110508Y64798D02*
X116096D01*
X110508Y65306D02*
X116096D01*
X110000Y151158D02*
X119144D01*
X106952Y142522D02*
X117112D01*
X110000Y144554D02*
X118636D01*
X65296Y51590D02*
X107460D01*
X110000Y145062D02*
X118636D01*
X99332Y66830D02*
X116096D01*
X112032Y58702D02*
X117112D01*
X78504Y156238D02*
X117620D01*
X111016Y60734D02*
X117112D01*
X86124Y156746D02*
X110000D01*
X104412Y140998D02*
X119652D01*
X105428Y141506D02*
X118636D01*
X94760Y94770D02*
X102380D01*
X95268Y95278D02*
X103396D01*
X95268Y95786D02*
X103396D01*
X95268Y96294D02*
X103904D01*
X95268Y96802D02*
X104412D01*
X95268Y97310D02*
X105428D01*
X74948Y76482D02*
X80536D01*
X103396Y56670D02*
X116096D01*
X105428Y95786D02*
X116096D01*
X101364Y110010D02*
X117112D01*
X101872Y110518D02*
X116096D01*
X73932Y76990D02*
X80536D01*
X111524Y58194D02*
X117112D01*
X103396Y56162D02*
X116096D01*
X94760Y94262D02*
X101872D01*
X111016Y61242D02*
X117112D01*
X105428Y142014D02*
X118128D01*
X94760Y93754D02*
X101872D01*
X73932Y91214D02*
X79012D01*
X74948Y90706D02*
X80028D01*
X74948Y90198D02*
X80028D01*
X92220Y88674D02*
X102888D01*
X92728Y88166D02*
X102380D01*
X115588Y149126D02*
X118636D01*
X113556Y149634D02*
X118636D01*
X110000Y150142D02*
X118636D01*
X110000Y150650D02*
X118636D01*
X112032Y59210D02*
X117112D01*
X110508Y62766D02*
X116604D01*
X92728Y87658D02*
X101872D01*
X107460Y57686D02*
X117112D01*
X93744Y53622D02*
X112032D01*
X87648Y120678D02*
X103904D01*
X107460Y57178D02*
X116604D01*
X88664Y53114D02*
X111016D01*
X87648Y120170D02*
X103904D01*
X115080Y93246D02*
X117112D01*
X88664Y52606D02*
X110508D01*
X88664Y119662D02*
X103396D01*
X116096Y92738D02*
X117112D01*
X83584Y52098D02*
X108984D01*
X88664Y119154D02*
X103396D01*
X116096Y92230D02*
X117112D01*
X65804Y51082D02*
X106952D01*
X89172Y118646D02*
X102888D01*
X108476Y114582D02*
X120160D01*
X99332Y67338D02*
X118636D01*
X90188Y118138D02*
X102380D01*
X110508Y147602D02*
X118636D01*
X97808Y104422D02*
X119144D01*
X90188Y117630D02*
X104412D01*
X115080Y147094D02*
X118636D01*
X97808Y103914D02*
X117620D01*
X70376Y112550D02*
X80028D01*
X115588Y146586D02*
X118636D01*
X95776Y99342D02*
X107460D01*
X88664Y142014D02*
X101872D01*
X110000Y146078D02*
X118636D01*
X95776Y98834D02*
X107460D01*
X88664Y141506D02*
X101872D01*
X110000Y145570D02*
X118636D01*
X95776Y98326D02*
X106952D01*
X88156Y140998D02*
X102888D01*
X110508Y74958D02*
X120160D01*
X110508Y148110D02*
X118636D01*
X87648Y140490D02*
X103396D01*
X108984Y74450D02*
X117620D01*
X99332Y66322D02*
X116096D01*
X87648Y139982D02*
X103904D01*
X113556Y94262D02*
X117112D01*
X110508Y148618D02*
X118636D01*
X87140Y139474D02*
X103904D01*
X114064Y93754D02*
X117112D01*
X87140Y138966D02*
X103904D01*
X111524Y60226D02*
X117112D01*
X58692Y153698D02*
X80028D01*
X112032Y59718D02*
X117112D01*
X95776Y97818D02*
X105936D01*
X110508Y65814D02*
X116096D01*
X111016Y61750D02*
X117112D01*
X105936Y96294D02*
X116096D01*
X111016Y62258D02*
X117112D01*
X104920Y95278D02*
X116604D01*
X110508Y63782D02*
X116096D01*
X104412Y94770D02*
X116604D01*
X110508Y63274D02*
X116604D01*
X95776Y123218D02*
X112540D01*
X110508Y64290D02*
X116096D01*
X87140Y122710D02*
X112540D01*
X78504Y117122D02*
X120160D01*
X79520Y116614D02*
X119144D01*
X80536Y116106D02*
X117112D01*
X80028Y115598D02*
X116604D01*
X103904Y115090D02*
X118636D01*
X76980Y65814D02*
X80028D01*
X76980Y65306D02*
X79012D01*
X76980Y64798D02*
X79012D01*
X76980Y75974D02*
X80536D01*
X78504Y75466D02*
X80536D01*
X78504Y74958D02*
X80536D01*
X79520Y116106D02*
X80028D01*
X79012Y111026D02*
X80028D01*
X77488Y110518D02*
X80028D01*
X98824Y65814D02*
X108476D01*
X106444Y65306D02*
X108476D01*
X98824D02*
X104412D01*
X106444Y64798D02*
X108984D01*
X98824D02*
X104412D01*
X106444Y64290D02*
X108984D01*
X101872D02*
X104412D01*
X106444Y63782D02*
X108984D01*
X101872D02*
X104412D01*
X106444Y63274D02*
X108984D01*
X101872D02*
X104412D01*
X106444Y62766D02*
X108984D01*
X101872D02*
X104412D01*
X106444Y62258D02*
X108984D01*
X101872D02*
X104920D01*
X106444Y61750D02*
X108984D01*
X101872D02*
X104920D01*
X106952Y61242D02*
X109492D01*
X101872D02*
X104920D01*
X106952Y60734D02*
X109492D01*
X102380D02*
X104920D01*
X106952Y60226D02*
X109492D01*
X102380D02*
X105428D01*
X102380Y59718D02*
X105428D01*
X106952Y59210D02*
X110508D01*
X106952Y59718D02*
X110000D01*
X102380Y59210D02*
X105428D01*
X102888Y58194D02*
X105428D01*
X102888Y57686D02*
X105936D01*
X107460Y58194D02*
X111016D01*
X96792Y101882D02*
X112032D01*
X97300Y102898D02*
X114064D01*
X103396Y57178D02*
X105936D01*
X107460Y58702D02*
X110508D01*
X102380D02*
X105428D01*
X97300Y102390D02*
X113556D01*
X97300Y103406D02*
X115588D01*
X104412Y83594D02*
X107460D01*
X107968Y73942D02*
X115588D01*
X107460Y73434D02*
X114064D01*
X105428Y72926D02*
X110508D01*
X103904Y72418D02*
X106444D01*
X102380Y86134D02*
X109492D01*
X102380Y86642D02*
X110000D01*
X102380Y85626D02*
X109492D01*
X103904Y84102D02*
X108476D01*
X98316Y54130D02*
X113556D01*
X102888Y85118D02*
X108984D01*
X103396Y84610D02*
X108984D01*
X98824Y54638D02*
X114064D01*
X102888Y55146D02*
X114572D01*
X98316Y55654D02*
X101872D01*
X103396D02*
X115588D01*
X98824Y55146D02*
X101872D01*
X99840Y146586D02*
X103396D01*
X102888Y111534D02*
X109492D01*
X96792Y134394D02*
X112540D01*
X98824Y145570D02*
X102888D01*
X110000Y152174D02*
X111016D01*
X96792Y128298D02*
X111016D01*
X104920Y145062D02*
X108984D01*
X105428Y146078D02*
X108476D01*
X102380Y111026D02*
X115588D01*
X96792Y125758D02*
X112540D01*
X110000Y147094D02*
X111016D01*
X96792Y128806D02*
X104412D01*
X96792Y129314D02*
X104412D01*
X100348Y147094D02*
X103904D01*
X96792Y132870D02*
X104412D01*
X110508Y111534D02*
X114064D01*
X103396Y112042D02*
X108476D01*
X96792Y136934D02*
X113048D01*
X109492Y143538D02*
X114572D01*
X96792Y130838D02*
X104412D01*
X96792Y131346D02*
X104412D01*
X99332Y146078D02*
X102888D01*
X96284Y123726D02*
X112540D01*
X96792Y135918D02*
X112540D01*
X96792Y136426D02*
X112540D01*
X110508Y112042D02*
X112540D01*
X103904Y112550D02*
X105936D01*
X96792Y129822D02*
X104412D01*
X96792Y130330D02*
X104412D01*
X109492Y132870D02*
X112540D01*
X96792Y124234D02*
X112540D01*
X96792Y124742D02*
X112540D01*
X105428Y146586D02*
X108476D01*
X104412Y145570D02*
X108476D01*
X96792Y125250D02*
X112540D01*
X96792Y131854D02*
X104412D01*
X96792Y132362D02*
X104412D01*
X105428Y133886D02*
X112540D01*
X96792Y133378D02*
X104412D01*
X96792Y133886D02*
X104412D01*
X105428Y147094D02*
X108476D01*
Y143030D02*
X115588D01*
X100856Y147602D02*
X108476D01*
X96792Y134902D02*
X112540D01*
X100348Y152174D02*
X108476D01*
X105428Y133378D02*
X112540D01*
X96792Y135410D02*
X112540D01*
X110000Y146586D02*
X112540D01*
X105428Y150142D02*
X108476D01*
X116604Y91722D02*
X117112D01*
X96792Y127790D02*
X111524D01*
X98824Y150142D02*
X101872D01*
X98824Y149634D02*
X102380D01*
X99332Y148618D02*
X108476D01*
X99332Y151666D02*
X108984D01*
X110000Y149634D02*
X111524D01*
X118128Y110518D02*
X119144D01*
X98824Y149126D02*
X108476D01*
X110508D02*
X114572D01*
X105428Y149634D02*
X108476D01*
X71392Y60734D02*
X79012D01*
X71900Y59718D02*
X80536D01*
X70884Y61750D02*
X80028D01*
X110000Y151666D02*
X114064D01*
X67328Y50574D02*
X105428D01*
X71900Y60226D02*
X80028D01*
X99332Y148110D02*
X108476D01*
X117620Y144046D02*
X118636D01*
X102380Y87150D02*
X110000D01*
X98824Y150650D02*
X108476D01*
X70884Y61242D02*
X80028D01*
X98824Y151158D02*
X108476D01*
D89*
X91137Y46083D02*
X97908D01*
Y35926D01*
X91137D01*
X97908Y41005D02*
X94523D01*
X80981Y44390D02*
X82674Y46083D01*
X86059D01*
X87752Y44390D01*
Y37619D01*
X86059Y35926D01*
X82674D01*
X80981Y37619D01*
X70824Y46083D02*
X77595D01*
Y35926D01*
X70824D01*
X77595Y41005D02*
X74209D01*
X57282Y44390D02*
X55589Y46083D01*
X52203D01*
X50511Y44390D01*
Y42697D01*
X52203Y41005D01*
X53896D01*
X52203D01*
X50511Y39312D01*
Y37619D01*
X52203Y35926D01*
X55589D01*
X57282Y37619D01*
X47125Y35926D02*
X43739D01*
X45432D01*
Y46083D01*
X47125Y44390D01*
X31890Y46083D02*
X38661D01*
Y41005D01*
X35275Y42697D01*
X33583D01*
X31890Y41005D01*
Y37619D01*
X33583Y35926D01*
X36968D01*
X38661Y37619D01*
M02*
