G04*
G04 #@! TF.GenerationSoftware,Altium Limited,Altium Designer,23.9.2 (47)*
G04*
G04 Layer_Color=16711935*
%FSLAX44Y44*%
%MOMM*%
G71*
G04*
G04 #@! TF.SameCoordinates,63E22B9A-3F1A-4F83-A6EB-2A786139D624*
G04*
G04*
G04 #@! TF.FilePolarity,Negative*
G04*
G01*
G75*
%ADD44C,3.3732*%
%ADD45C,2.6032*%
%ADD46C,1.6032*%
%ADD47R,1.6032X1.6032*%
%ADD49C,1.7032*%
%ADD50R,1.7032X1.7032*%
%ADD51C,0.8032*%
G04:AMPARAMS|DCode=61|XSize=1mm|YSize=1.5mm|CornerRadius=0mm|HoleSize=0mm|Usage=FLASHONLY|Rotation=30.000|XOffset=0mm|YOffset=0mm|HoleType=Round|Shape=Rectangle|*
%AMROTATEDRECTD61*
4,1,4,-0.0580,-0.8995,-0.8080,0.3995,0.0580,0.8995,0.8080,-0.3995,-0.0580,-0.8995,0.0*
%
%ADD61ROTATEDRECTD61*%

%ADD63R,1.5000X1.0000*%
G04:AMPARAMS|DCode=65|XSize=1mm|YSize=1.5mm|CornerRadius=0mm|HoleSize=0mm|Usage=FLASHONLY|Rotation=60.000|XOffset=0mm|YOffset=0mm|HoleType=Round|Shape=Rectangle|*
%AMROTATEDRECTD65*
4,1,4,0.3995,-0.8080,-0.8995,-0.0580,-0.3995,0.8080,0.8995,0.0580,0.3995,-0.8080,0.0*
%
%ADD65ROTATEDRECTD65*%

%ADD73R,1.0000X1.5000*%
%ADD74R,0.8000X1.7000*%
%ADD76R,2.7032X2.7032*%
%ADD77R,1.8032X1.8032*%
G04:AMPARAMS|DCode=78|XSize=1.4032mm|YSize=1.7032mm|CornerRadius=0mm|HoleSize=0mm|Usage=FLASHONLY|Rotation=310.000|XOffset=0mm|YOffset=0mm|HoleType=Round|Shape=Rectangle|*
%AMROTATEDRECTD78*
4,1,4,-1.1034,-0.0099,0.2014,1.0849,1.1034,0.0099,-0.2014,-1.0849,-1.1034,-0.0099,0.0*
%
%ADD78ROTATEDRECTD78*%

G04:AMPARAMS|DCode=79|XSize=1.4032mm|YSize=1.7032mm|CornerRadius=0mm|HoleSize=0mm|Usage=FLASHONLY|Rotation=330.000|XOffset=0mm|YOffset=0mm|HoleType=Round|Shape=Rectangle|*
%AMROTATEDRECTD79*
4,1,4,-1.0334,-0.3867,-0.1818,1.0883,1.0334,0.3867,0.1818,-1.0883,-1.0334,-0.3867,0.0*
%
%ADD79ROTATEDRECTD79*%

%ADD80R,1.4032X1.7032*%
G04:AMPARAMS|DCode=81|XSize=1.4032mm|YSize=1.7032mm|CornerRadius=0mm|HoleSize=0mm|Usage=FLASHONLY|Rotation=30.000|XOffset=0mm|YOffset=0mm|HoleType=Round|Shape=Rectangle|*
%AMROTATEDRECTD81*
4,1,4,-0.1818,-1.0883,-1.0334,0.3867,0.1818,1.0883,1.0334,-0.3867,-0.1818,-1.0883,0.0*
%
%ADD81ROTATEDRECTD81*%

G04:AMPARAMS|DCode=82|XSize=1.4032mm|YSize=1.7032mm|CornerRadius=0mm|HoleSize=0mm|Usage=FLASHONLY|Rotation=60.000|XOffset=0mm|YOffset=0mm|HoleType=Round|Shape=Rectangle|*
%AMROTATEDRECTD82*
4,1,4,0.3867,-1.0334,-1.0883,-0.1818,-0.3867,1.0334,1.0883,0.1818,0.3867,-1.0334,0.0*
%
%ADD82ROTATEDRECTD82*%

%ADD83R,1.7032X1.4032*%
G04:AMPARAMS|DCode=84|XSize=1.4032mm|YSize=1.7032mm|CornerRadius=0mm|HoleSize=0mm|Usage=FLASHONLY|Rotation=300.000|XOffset=0mm|YOffset=0mm|HoleType=Round|Shape=Rectangle|*
%AMROTATEDRECTD84*
4,1,4,-1.0883,0.1818,0.3867,1.0334,1.0883,-0.1818,-0.3867,-1.0334,-1.0883,0.1818,0.0*
%
%ADD84ROTATEDRECTD84*%

%ADD85C,4.5212*%
D44*
X882750Y692850D02*
D03*
Y807150D02*
D03*
X117250D02*
D03*
Y692850D02*
D03*
D45*
X852250Y671250D02*
D03*
Y828750D02*
D03*
X147750D02*
D03*
Y671250D02*
D03*
D46*
X971650Y705550D02*
D03*
X946250Y718250D02*
D03*
X971650Y730950D02*
D03*
X946250Y743650D02*
D03*
X971650Y756350D02*
D03*
X946250Y769050D02*
D03*
X971650Y781750D02*
D03*
X28350Y794450D02*
D03*
X53750Y781750D02*
D03*
X28350Y769050D02*
D03*
X53750Y756350D02*
D03*
X28350Y743650D02*
D03*
X53750Y730950D02*
D03*
X28350Y718250D02*
D03*
D47*
X946250Y794450D02*
D03*
X53750Y705550D02*
D03*
D49*
X250000Y683000D02*
D03*
Y784600D02*
D03*
Y708400D02*
D03*
Y733800D02*
D03*
Y759200D02*
D03*
X750000D02*
D03*
Y733800D02*
D03*
Y708400D02*
D03*
Y784600D02*
D03*
Y683000D02*
D03*
D50*
X250000Y810000D02*
D03*
X750000D02*
D03*
D51*
X493387Y590000D02*
D03*
X492790Y513245D02*
D03*
X326601Y640000D02*
D03*
X486193Y498918D02*
D03*
X487387Y610000D02*
D03*
X435500Y510000D02*
D03*
Y525134D02*
D03*
X441500Y490000D02*
D03*
X859355Y550500D02*
D03*
X311707Y449761D02*
D03*
X43933Y743650D02*
D03*
X473181Y622000D02*
D03*
X460000Y544500D02*
D03*
Y598806D02*
D03*
X476817Y290000D02*
D03*
X460000Y673564D02*
D03*
X423703Y708400D02*
D03*
X424000Y591194D02*
D03*
X418000Y691000D02*
D03*
X517465Y701193D02*
D03*
X614712Y640500D02*
D03*
X676000Y440152D02*
D03*
X623218Y340000D02*
D03*
X690941Y350365D02*
D03*
X517465Y477500D02*
D03*
X483422Y443000D02*
D03*
X798601Y573399D02*
D03*
Y380000D02*
D03*
X780000Y420000D02*
D03*
X700000Y539000D02*
D03*
X710000Y581000D02*
D03*
X786000Y600000D02*
D03*
X710000Y759050D02*
D03*
X512487Y440152D02*
D03*
X921053Y500000D02*
D03*
X538806Y280500D02*
D03*
X780000Y756350D02*
D03*
X840000Y135000D02*
D03*
X669000Y530000D02*
D03*
X529256Y691000D02*
D03*
X413470Y280500D02*
D03*
X207296Y260000D02*
D03*
X180000Y182000D02*
D03*
X330000Y180000D02*
D03*
X328000Y340000D02*
D03*
X347500Y502500D02*
D03*
X346306Y540000D02*
D03*
X347500Y580000D02*
D03*
X266343Y551000D02*
D03*
X267351Y440116D02*
D03*
X41474Y870000D02*
D03*
X786000D02*
D03*
X71792Y743650D02*
D03*
X89426Y714390D02*
D03*
X955569Y525431D02*
D03*
X770000Y283000D02*
D03*
X740000Y261874D02*
D03*
X780000Y140000D02*
D03*
X729281Y410000D02*
D03*
X720000Y430000D02*
D03*
X846000Y644860D02*
D03*
X667483Y643899D02*
D03*
X845145Y599403D02*
D03*
X786000Y550800D02*
D03*
X868109Y620000D02*
D03*
Y531500D02*
D03*
X685193Y474857D02*
D03*
X660000Y350000D02*
D03*
X670000Y397843D02*
D03*
X880000Y304874D02*
D03*
X500000Y164913D02*
D03*
X592593Y170000D02*
D03*
X600000Y292500D02*
D03*
X430000Y329147D02*
D03*
X430500Y496000D02*
D03*
X614712Y671250D02*
D03*
X584000Y849008D02*
D03*
X482346Y850000D02*
D03*
X383581D02*
D03*
X308309Y626750D02*
D03*
X220000Y626843D02*
D03*
Y550500D02*
D03*
X270000Y610000D02*
D03*
X360000Y650000D02*
D03*
X300000Y505000D02*
D03*
X270750Y502500D02*
D03*
X239500Y570000D02*
D03*
X239619Y384343D02*
D03*
X297750Y406601D02*
D03*
X398884Y170000D02*
D03*
X386807Y350000D02*
D03*
X485744Y384343D02*
D03*
X494000Y370000D02*
D03*
X506000Y430000D02*
D03*
X270000Y657957D02*
D03*
X512807Y359500D02*
D03*
X494000Y440000D02*
D03*
X500000Y312546D02*
D03*
Y421194D02*
D03*
X506000Y321691D02*
D03*
X728928Y733469D02*
D03*
X540000Y410000D02*
D03*
Y458806D02*
D03*
X609718Y460000D02*
D03*
X598307Y475000D02*
D03*
X598593Y420000D02*
D03*
X609625Y494913D02*
D03*
X598593Y570000D02*
D03*
X599500Y500000D02*
D03*
X588806Y504000D02*
D03*
X577500Y510000D02*
D03*
X590000Y659015D02*
D03*
X577500Y720673D02*
D03*
X570000Y520411D02*
D03*
X560000Y530000D02*
D03*
X90000Y757667D02*
D03*
Y890000D02*
D03*
X560000D02*
D03*
X71792Y880000D02*
D03*
X570000D02*
D03*
D61*
X690000Y622000D02*
D03*
X667483Y609000D02*
D03*
D63*
X500000Y697000D02*
D03*
Y723000D02*
D03*
D65*
X593500Y685742D02*
D03*
X606500Y708258D02*
D03*
D73*
X710000Y507500D02*
D03*
X684000D02*
D03*
D74*
X886000Y620000D02*
D03*
X920000D02*
D03*
D76*
X945000Y135000D02*
D03*
Y205000D02*
D03*
X875000D02*
D03*
Y135000D02*
D03*
D77*
X475000Y570000D02*
D03*
Y430000D02*
D03*
X525000Y570000D02*
D03*
Y430000D02*
D03*
D78*
X398678Y672658D02*
D03*
X381322Y693342D02*
D03*
D79*
X331691Y613250D02*
D03*
X308309Y626750D02*
D03*
X668309Y393250D02*
D03*
X691691Y379750D02*
D03*
D80*
X297750Y502500D02*
D03*
X270750D02*
D03*
D81*
X321691Y393250D02*
D03*
X298309Y379750D02*
D03*
D82*
X383250Y298309D02*
D03*
X396750Y321691D02*
D03*
D83*
X500000Y270000D02*
D03*
Y297000D02*
D03*
D84*
X596125Y331691D02*
D03*
X609625Y308309D02*
D03*
D85*
X950000Y50000D02*
D03*
Y950000D02*
D03*
X50000Y50000D02*
D03*
Y950000D02*
D03*
M02*
