M48
;Layer_Color=9474304
;FILE_FORMAT=4:3
METRIC,LZ
;TYPE=PLATED
T01F00S00C0.300
T02F00S00C0.900
T03F00S00C1.600
T04F00S00C2.550
;TYPE=NON_PLATED
T05F00S00C3.170
%
T01
X0039888Y0017
X005Y0016491
X0059259Y0017
X0078Y0014
X0084Y00135
X0092105Y005
X0095557Y0052543
X0086811Y005315
X0085936Y005505
X00786Y005508
X007Y00539
X00669Y0053
X0068519Y0047486
X00676Y0044015
X0067Y0039784
X0066Y0035
X0069094Y0035037
X0062322Y0034
X006Y002925
X0053881Y002805
X0051281Y003595
X0054Y0041
Y0045881
X0051746Y004775
X0051249Y0044015
X0059859Y0042
X0060972Y0046
X0059831Y00475
X005995Y005
X0058881Y00504
X005775Y0051
X0057Y0052041
X0056Y0053
X0059859Y0057
X0060963Y0049491
X0072Y0043
X0072928Y0041
X0078Y0042
X007986Y0038
X0077Y00283
X0074Y0026187
X0088Y0030487
X005Y0031255
X00506Y0032169
X00494Y0037
X0048574Y0038434
X005Y0042119
X00506Y0043
X00494Y0044
X0048342Y00443
X0048619Y0049892
X0049279Y0051324
X004355Y0051
Y0052513
X004305Y00496
X004415Y0049
X0046Y005445
X0034631Y0054
X003475Y005025
X003Y00505
X0027075Y005025
X0026634Y00551
X002395Y0057
X0022Y005505
X0026735Y0044012
X0031171Y0044976
X0029775Y004066
X0023962Y0038434
X00328Y0034
X0038681Y0035
X0043Y0032915
X0041347Y002805
X0047682Y0029
X0033Y0018
X0018Y00182
X002073Y0026
X0008943Y0071439
X0009Y0075767
X0007179Y0074365
X0004393
X0004147Y0087
X0007179Y0088
X0009Y0089
X0038358Y0085
X0048235
X0046Y0067356
X00418Y00691
X004237Y007084
X00424Y0059119
X0046Y0059881
X0047318Y00622
X0048739Y0061
X0049339Y0059
X003475Y0058
X003266Y0064
X0030831Y0062675
X0027Y0061
Y0065796
X0022Y0062684
X0036Y0065
X0051746Y0070119
X0052926Y00691
X005775Y0072067
X0059Y0065901
X0061471Y0067125
Y006405
X0066748Y006439
X0071Y00581
X00786Y006
X007986Y005734
X0084514Y005994
X0086811Y0062
X00846Y0064486
X0078Y0075635
X0071Y0075905
X0072893Y0073347
X00786Y0087
X00584Y0084901
X0057Y0088
X0056Y0089
T02
X0002835Y0071825
Y0074365
Y0076905
Y0079445
X0005375Y0078175
Y0075635
Y0073095
Y0070555
X0025Y007084
Y00683
Y007338
Y007592
Y007846
Y0081
X0075
Y007846
Y007592
Y007338
Y007084
Y00683
X0094625Y0071825
Y0074365
Y0076905
Y0079445
X0097165Y0078175
Y0075635
Y0073095
Y0070555
T03
X0014775Y0067125
Y0082875
X0085225
Y0067125
T04
X0005Y0005
X0095
X0005Y0095
X0095
T05
X0011725Y0069285
Y0080715
X0088275
Y0069285
M30
